<?xml version="1.0" standalone="no"?>
<svg xmlns="http://www.w3.org/2000/svg" version="1.2" baseProfile="tiny" width="384" height="284">
<rect id="background" x="0" y="0" width="384" height="284" fill="rgb(41,13,9)" fill-opacity="1"/>
<g transform="translate(134 141) rotate(75) scale(37 120)"><ellipse cx="0" cy="0" rx="1" ry="1" id="0" fill="rgb(139,49,37)" fill-opacity="0.501961" /></g>
<g transform="translate(48 126) rotate(41) scale(28 39)"><ellipse cx="0" cy="0" rx="1" ry="1" id="1" fill="rgb(128,87,51)" fill-opacity="0.501961" /></g>
<g transform="translate(98 131) rotate(0) scale(29 9)"><ellipse cx="0" cy="0" rx="1" ry="1" id="2" fill="rgb(226,195,121)" fill-opacity="0.501961" /></g>
<g transform="translate(140 45) rotate(314) scale(102 48)"><ellipse cx="0" cy="0" rx="1" ry="1" id="3" fill="rgb(0,0,0)" fill-opacity="0.501961" /></g>
<g transform="translate(261 32) rotate(351) scale(41 195)"><ellipse cx="0" cy="0" rx="1" ry="1" id="4" fill="rgb(0,0,0)" fill-opacity="0.501961" /></g>
<g transform="translate(353 28) rotate(137) scale(40 48)"><ellipse cx="0" cy="0" rx="1" ry="1" id="5" fill="rgb(129,27,25)" fill-opacity="0.501961" /></g>
<g transform="translate(199 95) rotate(182) scale(22 44)"><ellipse cx="0" cy="0" rx="1" ry="1" id="6" fill="rgb(169,46,42)" fill-opacity="0.501961" /></g>
<g transform="translate(111 194) rotate(104) scale(47 85)"><ellipse cx="0" cy="0" rx="1" ry="1" id="7" fill="rgb(61,8,8)" fill-opacity="0.501961" /></g>
<g transform="translate(19 249) rotate(262) scale(98 39)"><ellipse cx="0" cy="0" rx="1" ry="1" id="8" fill="rgb(0,0,0)" fill-opacity="0.501961" /></g>
<g transform="translate(306 276) rotate(322) scale(59 34)"><ellipse cx="0" cy="0" rx="1" ry="1" id="9" fill="rgb(0,0,0)" fill-opacity="0.501961" /></g>
<g transform="translate(228 103) rotate(196) scale(20 16)"><ellipse cx="0" cy="0" rx="1" ry="1" id="10" fill="rgb(172,21,30)" fill-opacity="0.501961" /></g>
<g transform="translate(239 176) rotate(1) scale(41 59)"><ellipse cx="0" cy="0" rx="1" ry="1" id="11" fill="rgb(11,0,0)" fill-opacity="0.501961" /></g>
<g transform="translate(131 255) rotate(0) scale(68 23)"><ellipse cx="0" cy="0" rx="1" ry="1" id="12" fill="rgb(85,35,16)" fill-opacity="0.501961" /></g>
<g transform="translate(126 155) rotate(151) scale(52 13)"><ellipse cx="0" cy="0" rx="1" ry="1" id="13" fill="rgb(24,1,1)" fill-opacity="0.501961" /></g>
<g transform="translate(172 162) rotate(257) scale(14 41)"><ellipse cx="0" cy="0" rx="1" ry="1" id="14" fill="rgb(133,13,23)" fill-opacity="0.501961" /></g>
<g transform="translate(48 71) rotate(180) scale(4 57)"><ellipse cx="0" cy="0" rx="1" ry="1" id="15" fill="rgb(122,99,74)" fill-opacity="0.501961" /></g>
<g transform="translate(168 122) rotate(291) scale(5 33)"><ellipse cx="0" cy="0" rx="1" ry="1" id="16" fill="rgb(202,96,71)" fill-opacity="0.501961" /></g>
<g transform="translate(87 14) rotate(72) scale(118 34)"><ellipse cx="0" cy="0" rx="1" ry="1" id="17" fill="rgb(2,10,3)" fill-opacity="0.501961" /></g>
<g transform="translate(365 34) rotate(67) scale(12 17)"><ellipse cx="0" cy="0" rx="1" ry="1" id="18" fill="rgb(178,56,40)" fill-opacity="0.501961" /></g>
<g transform="translate(0 80) rotate(13) scale(41 64)"><ellipse cx="0" cy="0" rx="1" ry="1" id="19" fill="rgb(3,14,15)" fill-opacity="0.501961" /></g>
<g transform="translate(339 19) rotate(198) scale(16 92)"><ellipse cx="0" cy="0" rx="1" ry="1" id="20" fill="rgb(57,0,9)" fill-opacity="0.501961" /></g>
<g transform="translate(200 13) rotate(274) scale(34 111)"><ellipse cx="0" cy="0" rx="1" ry="1" id="21" fill="rgb(0,0,0)" fill-opacity="0.501961" /></g>
<g transform="translate(330 207) rotate(112) scale(20 102)"><ellipse cx="0" cy="0" rx="1" ry="1" id="22" fill="rgb(7,0,0)" fill-opacity="0.501961" /></g>
<g transform="translate(368 189) rotate(179) scale(27 6)"><ellipse cx="0" cy="0" rx="1" ry="1" id="23" fill="rgb(159,42,27)" fill-opacity="0.501961" /></g>
<g transform="translate(234 71) rotate(145) scale(47 8)"><ellipse cx="0" cy="0" rx="1" ry="1" id="24" fill="rgb(13,0,0)" fill-opacity="0.501961" /></g>
<g transform="translate(352 149) rotate(258) scale(35 23)"><ellipse cx="0" cy="0" rx="1" ry="1" id="25" fill="rgb(4,0,0)" fill-opacity="0.501961" /></g>
<g transform="translate(126 196) rotate(31) scale(7 45)"><ellipse cx="0" cy="0" rx="1" ry="1" id="26" fill="rgb(133,20,26)" fill-opacity="0.501961" /></g>
<g transform="translate(238 283) rotate(167) scale(115 22)"><ellipse cx="0" cy="0" rx="1" ry="1" id="27" fill="rgb(2,0,0)" fill-opacity="0.501961" /></g>
<g transform="translate(174 206) rotate(360) scale(7 29)"><ellipse cx="0" cy="0" rx="1" ry="1" id="28" fill="rgb(137,14,28)" fill-opacity="0.501961" /></g>
<g transform="translate(197 74) rotate(312) scale(8 7)"><ellipse cx="0" cy="0" rx="1" ry="1" id="29" fill="rgb(197,177,124)" fill-opacity="0.501961" /></g>
<g transform="translate(10 23) rotate(4) scale(17 38)"><ellipse cx="0" cy="0" rx="1" ry="1" id="30" fill="rgb(43,47,43)" fill-opacity="0.501961" /></g>
<g transform="translate(52 97) rotate(227) scale(19 10)"><ellipse cx="0" cy="0" rx="1" ry="1" id="31" fill="rgb(126,88,59)" fill-opacity="0.501961" /></g>
<g transform="translate(57 126) rotate(165) scale(25 8)"><ellipse cx="0" cy="0" rx="1" ry="1" id="32" fill="rgb(44,5,4)" fill-opacity="0.501961" /></g>
<g transform="translate(102 139) rotate(104) scale(6 13)"><ellipse cx="0" cy="0" rx="1" ry="1" id="33" fill="rgb(215,165,97)" fill-opacity="0.501961" /></g>
<g transform="translate(161 110) rotate(258) scale(12 23)"><ellipse cx="0" cy="0" rx="1" ry="1" id="34" fill="rgb(138,7,21)" fill-opacity="0.501961" /></g>
<g transform="translate(178 82) rotate(73) scale(6 15)"><ellipse cx="0" cy="0" rx="1" ry="1" id="35" fill="rgb(0,0,0)" fill-opacity="0.501961" /></g>
<g transform="translate(88 155) rotate(44) scale(13 19)"><ellipse cx="0" cy="0" rx="1" ry="1" id="36" fill="rgb(39,13,5)" fill-opacity="0.501961" /></g>
<g transform="translate(282 75) rotate(182) scale(28 109)"><ellipse cx="0" cy="0" rx="1" ry="1" id="37" fill="rgb(4,0,1)" fill-opacity="0.501961" /></g>
<g transform="translate(221 139) rotate(264) scale(9 39)"><ellipse cx="0" cy="0" rx="1" ry="1" id="38" fill="rgb(24,0,3)" fill-opacity="0.501961" /></g>
<g transform="translate(26 141) rotate(243) scale(29 9)"><ellipse cx="0" cy="0" rx="1" ry="1" id="39" fill="rgb(110,57,31)" fill-opacity="0.501961" /></g>
<g transform="translate(152 205) rotate(290) scale(33 14)"><ellipse cx="0" cy="0" rx="1" ry="1" id="40" fill="rgb(14,0,2)" fill-opacity="0.501961" /></g>
<g transform="translate(46 145) rotate(106) scale(5 26)"><ellipse cx="0" cy="0" rx="1" ry="1" id="41" fill="rgb(139,96,55)" fill-opacity="0.501961" /></g>
<g transform="translate(38 282) rotate(16) scale(151 28)"><ellipse cx="0" cy="0" rx="1" ry="1" id="42" fill="rgb(4,1,1)" fill-opacity="0.501961" /></g>
<g transform="translate(85 140) rotate(178) scale(50 3)"><ellipse cx="0" cy="0" rx="1" ry="1" id="43" fill="rgb(163,105,60)" fill-opacity="0.501961" /></g>
<g transform="translate(207 80) rotate(158) scale(23 7)"><ellipse cx="0" cy="0" rx="1" ry="1" id="44" fill="rgb(67,21,16)" fill-opacity="0.501961" /></g>
<g transform="translate(188 106) rotate(25) scale(22 9)"><ellipse cx="0" cy="0" rx="1" ry="1" id="45" fill="rgb(172,26,29)" fill-opacity="0.501961" /></g>
<g transform="translate(36 192) rotate(353) scale(13 42)"><ellipse cx="0" cy="0" rx="1" ry="1" id="46" fill="rgb(37,7,6)" fill-opacity="0.501961" /></g>
<g transform="translate(67 182) rotate(150) scale(15 38)"><ellipse cx="0" cy="0" rx="1" ry="1" id="47" fill="rgb(80,41,19)" fill-opacity="0.501961" /></g>
<g transform="translate(117 266) rotate(278) scale(13 30)"><ellipse cx="0" cy="0" rx="1" ry="1" id="48" fill="rgb(85,50,19)" fill-opacity="0.501961" /></g>
<g transform="translate(14 89) rotate(324) scale(12 32)"><ellipse cx="0" cy="0" rx="1" ry="1" id="49" fill="rgb(5,0,0)" fill-opacity="0.501961" /></g>
<g transform="translate(29 44) rotate(98) scale(51 14)"><ellipse cx="0" cy="0" rx="1" ry="1" id="50" fill="rgb(4,8,9)" fill-opacity="0.501961" /></g>
<g transform="translate(84 132) rotate(353) scale(23 5)"><ellipse cx="0" cy="0" rx="1" ry="1" id="51" fill="rgb(204,150,94)" fill-opacity="0.501961" /></g>
<g transform="translate(186 245) rotate(208) scale(18 67)"><ellipse cx="0" cy="0" rx="1" ry="1" id="52" fill="rgb(35,6,4)" fill-opacity="0.501961" /></g>
<g transform="translate(355 118) rotate(157) scale(26 52)"><ellipse cx="0" cy="0" rx="1" ry="1" id="53" fill="rgb(25,0,2)" fill-opacity="0.501961" /></g>
<g transform="translate(198 57) rotate(314) scale(14 5)"><ellipse cx="0" cy="0" rx="1" ry="1" id="54" fill="rgb(166,37,31)" fill-opacity="0.501961" /></g>
<g transform="translate(163 49) rotate(271) scale(49 26)"><ellipse cx="0" cy="0" rx="1" ry="1" id="55" fill="rgb(7,2,3)" fill-opacity="0.501961" /></g>
<g transform="translate(25 148) rotate(29) scale(3 14)"><ellipse cx="0" cy="0" rx="1" ry="1" id="56" fill="rgb(128,73,41)" fill-opacity="0.501961" /></g>
<g transform="translate(216 252) rotate(83) scale(12 37)"><ellipse cx="0" cy="0" rx="1" ry="1" id="57" fill="rgb(71,27,12)" fill-opacity="0.501961" /></g>
<g transform="translate(111 126) rotate(278) scale(4 24)"><ellipse cx="0" cy="0" rx="1" ry="1" id="58" fill="rgb(139,107,67)" fill-opacity="0.501961" /></g>
<g transform="translate(316 64) rotate(0) scale(6 48)"><ellipse cx="0" cy="0" rx="1" ry="1" id="59" fill="rgb(92,14,18)" fill-opacity="0.501961" /></g>
<g transform="translate(0 120) rotate(169) scale(10 44)"><ellipse cx="0" cy="0" rx="1" ry="1" id="60" fill="rgb(0,0,0)" fill-opacity="0.501961" /></g>
<g transform="translate(318 158) rotate(356) scale(10 14)"><ellipse cx="0" cy="0" rx="1" ry="1" id="61" fill="rgb(88,11,14)" fill-opacity="0.501961" /></g>
<g transform="translate(197 84) rotate(108) scale(3 7)"><ellipse cx="0" cy="0" rx="1" ry="1" id="62" fill="rgb(203,131,83)" fill-opacity="0.501961" /></g>
<g transform="translate(145 137) rotate(141) scale(18 13)"><ellipse cx="0" cy="0" rx="1" ry="1" id="63" fill="rgb(49,12,8)" fill-opacity="0.501961" /></g>
<g transform="translate(75 115) rotate(121) scale(3 15)"><ellipse cx="0" cy="0" rx="1" ry="1" id="64" fill="rgb(115,77,52)" fill-opacity="0.501961" /></g>
<g transform="translate(354 66) rotate(233) scale(7 2)"><ellipse cx="0" cy="0" rx="1" ry="1" id="65" fill="rgb(158,115,81)" fill-opacity="0.501961" /></g>
<g transform="translate(170 113) rotate(94) scale(7 10)"><ellipse cx="0" cy="0" rx="1" ry="1" id="66" fill="rgb(59,0,12)" fill-opacity="0.501961" /></g>
<g transform="translate(68 49) rotate(162) scale(8 63)"><ellipse cx="0" cy="0" rx="1" ry="1" id="67" fill="rgb(32,26,10)" fill-opacity="0.501961" /></g>
<g transform="translate(44 82) rotate(197) scale(6 21)"><ellipse cx="0" cy="0" rx="1" ry="1" id="68" fill="rgb(83,55,37)" fill-opacity="0.501961" /></g>
<g transform="translate(245 106) rotate(66) scale(14 5)"><ellipse cx="0" cy="0" rx="1" ry="1" id="69" fill="rgb(103,11,21)" fill-opacity="0.501961" /></g>
<g transform="translate(177 164) rotate(268) scale(31 11)"><ellipse cx="0" cy="0" rx="1" ry="1" id="70" fill="rgb(93,7,16)" fill-opacity="0.501961" /></g>
<g transform="translate(349 0) rotate(207) scale(15 64)"><ellipse cx="0" cy="0" rx="1" ry="1" id="71" fill="rgb(49,6,6)" fill-opacity="0.501961" /></g>
<g transform="translate(194 130) rotate(276) scale(6 8)"><ellipse cx="0" cy="0" rx="1" ry="1" id="72" fill="rgb(192,136,77)" fill-opacity="0.501961" /></g>
<g transform="translate(191 126) rotate(297) scale(14 4)"><ellipse cx="0" cy="0" rx="1" ry="1" id="73" fill="rgb(141,91,63)" fill-opacity="0.501961" /></g>
<g transform="translate(51 123) rotate(273) scale(2 39)"><ellipse cx="0" cy="0" rx="1" ry="1" id="74" fill="rgb(49,13,6)" fill-opacity="0.501961" /></g>
<g transform="translate(123 164) rotate(309) scale(53 14)"><ellipse cx="0" cy="0" rx="1" ry="1" id="75" fill="rgb(49,12,9)" fill-opacity="0.501961" /></g>
<g transform="translate(244 44) rotate(159) scale(38 20)"><ellipse cx="0" cy="0" rx="1" ry="1" id="76" fill="rgb(19,3,3)" fill-opacity="0.501961" /></g>
<g transform="translate(210 203) rotate(179) scale(26 38)"><ellipse cx="0" cy="0" rx="1" ry="1" id="77" fill="rgb(24,2,4)" fill-opacity="0.501961" /></g>
<g transform="translate(102 99) rotate(75) scale(24 17)"><ellipse cx="0" cy="0" rx="1" ry="1" id="78" fill="rgb(15,10,6)" fill-opacity="0.501961" /></g>
<g transform="translate(372 0) rotate(79) scale(10 7)"><ellipse cx="0" cy="0" rx="1" ry="1" id="79" fill="rgb(145,81,37)" fill-opacity="0.501961" /></g>
<g transform="translate(68 189) rotate(348) scale(3 23)"><ellipse cx="0" cy="0" rx="1" ry="1" id="80" fill="rgb(25,0,0)" fill-opacity="0.501961" /></g>
<g transform="translate(383 259) rotate(264) scale(64 13)"><ellipse cx="0" cy="0" rx="1" ry="1" id="81" fill="rgb(12,1,3)" fill-opacity="0.501961" /></g>
<g transform="translate(53 156) rotate(99) scale(19 3)"><ellipse cx="0" cy="0" rx="1" ry="1" id="82" fill="rgb(134,88,51)" fill-opacity="0.501961" /></g>
<g transform="translate(202 92) rotate(80) scale(6 11)"><ellipse cx="0" cy="0" rx="1" ry="1" id="83" fill="rgb(37,0,6)" fill-opacity="0.501961" /></g>
<g transform="translate(365 175) rotate(221) scale(17 8)"><ellipse cx="0" cy="0" rx="1" ry="1" id="84" fill="rgb(27,0,2)" fill-opacity="0.501961" /></g>
<g transform="translate(211 168) rotate(90) scale(46 4)"><ellipse cx="0" cy="0" rx="1" ry="1" id="85" fill="rgb(61,15,14)" fill-opacity="0.501961" /></g>
<g transform="translate(77 261) rotate(360) scale(16 4)"><ellipse cx="0" cy="0" rx="1" ry="1" id="86" fill="rgb(99,67,31)" fill-opacity="0.501961" /></g>
<g transform="translate(163 245) rotate(300) scale(23 6)"><ellipse cx="0" cy="0" rx="1" ry="1" id="87" fill="rgb(99,8,20)" fill-opacity="0.501961" /></g>
<g transform="translate(383 73) rotate(78) scale(24 20)"><ellipse cx="0" cy="0" rx="1" ry="1" id="88" fill="rgb(53,5,9)" fill-opacity="0.501961" /></g>
<g transform="translate(251 58) rotate(182) scale(1 26)"><ellipse cx="0" cy="0" rx="1" ry="1" id="89" fill="rgb(82,35,25)" fill-opacity="0.501961" /></g>
<g transform="translate(67 231) rotate(65) scale(21 15)"><ellipse cx="0" cy="0" rx="1" ry="1" id="90" fill="rgb(29,2,4)" fill-opacity="0.501961" /></g>
<g transform="translate(223 99) rotate(327) scale(17 10)"><ellipse cx="0" cy="0" rx="1" ry="1" id="91" fill="rgb(146,25,27)" fill-opacity="0.501961" /></g>
<g transform="translate(117 241) rotate(334) scale(40 4)"><ellipse cx="0" cy="0" rx="1" ry="1" id="92" fill="rgb(33,0,4)" fill-opacity="0.501961" /></g>
<g transform="translate(360 38) rotate(259) scale(18 14)"><ellipse cx="0" cy="0" rx="1" ry="1" id="93" fill="rgb(133,38,30)" fill-opacity="0.501961" /></g>
<g transform="translate(0 36) rotate(192) scale(28 40)"><ellipse cx="0" cy="0" rx="1" ry="1" id="94" fill="rgb(38,32,29)" fill-opacity="0.501961" /></g>
<g transform="translate(107 229) rotate(221) scale(3 41)"><ellipse cx="0" cy="0" rx="1" ry="1" id="95" fill="rgb(93,12,17)" fill-opacity="0.501961" /></g>
<g transform="translate(223 81) rotate(97) scale(3 29)"><ellipse cx="0" cy="0" rx="1" ry="1" id="96" fill="rgb(26,2,3)" fill-opacity="0.501961" /></g>
<g transform="translate(22 137) rotate(303) scale(10 5)"><ellipse cx="0" cy="0" rx="1" ry="1" id="97" fill="rgb(140,94,58)" fill-opacity="0.501961" /></g>
<g transform="translate(50 106) rotate(240) scale(10 16)"><ellipse cx="0" cy="0" rx="1" ry="1" id="98" fill="rgb(113,78,54)" fill-opacity="0.501961" /></g>
<g transform="translate(46 135) rotate(178) scale(21 3)"><ellipse cx="0" cy="0" rx="1" ry="1" id="99" fill="rgb(56,8,8)" fill-opacity="0.501961" /></g>
<g transform="translate(200 105) rotate(305) scale(4 27)"><ellipse cx="0" cy="0" rx="1" ry="1" id="100" fill="rgb(164,23,24)" fill-opacity="0.501961" /></g>
<g transform="translate(199 157) rotate(326) scale(13 6)"><ellipse cx="0" cy="0" rx="1" ry="1" id="101" fill="rgb(135,27,27)" fill-opacity="0.501961" /></g>
<g transform="translate(101 102) rotate(157) scale(8 5)"><ellipse cx="0" cy="0" rx="1" ry="1" id="102" fill="rgb(53,44,26)" fill-opacity="0.501961" /></g>
<g transform="translate(167 101) rotate(346) scale(23 4)"><ellipse cx="0" cy="0" rx="1" ry="1" id="103" fill="rgb(172,31,28)" fill-opacity="0.501961" /></g>
<g transform="translate(275 234) rotate(350) scale(53 15)"><ellipse cx="0" cy="0" rx="1" ry="1" id="104" fill="rgb(48,11,6)" fill-opacity="0.501961" /></g>
<g transform="translate(196 71) rotate(78) scale(3 8)"><ellipse cx="0" cy="0" rx="1" ry="1" id="105" fill="rgb(246,200,144)" fill-opacity="0.501961" /></g>
<g transform="translate(214 84) rotate(352) scale(8 10)"><ellipse cx="0" cy="0" rx="1" ry="1" id="106" fill="rgb(40,0,5)" fill-opacity="0.501961" /></g>
<g transform="translate(167 173) rotate(226) scale(3 15)"><ellipse cx="0" cy="0" rx="1" ry="1" id="107" fill="rgb(30,0,6)" fill-opacity="0.501961" /></g>
<g transform="translate(143 140) rotate(239) scale(7 27)"><ellipse cx="0" cy="0" rx="1" ry="1" id="108" fill="rgb(64,19,14)" fill-opacity="0.501961" /></g>
<g transform="translate(159 159) rotate(59) scale(9 16)"><ellipse cx="0" cy="0" rx="1" ry="1" id="109" fill="rgb(137,33,26)" fill-opacity="0.501961" /></g>
<g transform="translate(339 121) rotate(197) scale(9 4)"><ellipse cx="0" cy="0" rx="1" ry="1" id="110" fill="rgb(91,19,20)" fill-opacity="0.501961" /></g>
<g transform="translate(356 217) rotate(89) scale(4 11)"><ellipse cx="0" cy="0" rx="1" ry="1" id="111" fill="rgb(78,23,12)" fill-opacity="0.501961" /></g>
<g transform="translate(37 27) rotate(169) scale(5 32)"><ellipse cx="0" cy="0" rx="1" ry="1" id="112" fill="rgb(5,6,5)" fill-opacity="0.501961" /></g>
<g transform="translate(351 56) rotate(140) scale(3 6)"><ellipse cx="0" cy="0" rx="1" ry="1" id="113" fill="rgb(152,73,43)" fill-opacity="0.501961" /></g>
<g transform="translate(179 125) rotate(103) scale(2 19)"><ellipse cx="0" cy="0" rx="1" ry="1" id="114" fill="rgb(188,125,76)" fill-opacity="0.501961" /></g>
<g transform="translate(314 0) rotate(271) scale(21 3)"><ellipse cx="0" cy="0" rx="1" ry="1" id="115" fill="rgb(148,40,25)" fill-opacity="0.501961" /></g>
<g transform="translate(124 132) rotate(275) scale(6 8)"><ellipse cx="0" cy="0" rx="1" ry="1" id="116" fill="rgb(128,88,50)" fill-opacity="0.501961" /></g>
<g transform="translate(382 182) rotate(113) scale(3 7)"><ellipse cx="0" cy="0" rx="1" ry="1" id="117" fill="rgb(141,37,28)" fill-opacity="0.501961" /></g>
<g transform="translate(106 142) rotate(216) scale(5 5)"><ellipse cx="0" cy="0" rx="1" ry="1" id="118" fill="rgb(199,144,79)" fill-opacity="0.501961" /></g>
<g transform="translate(127 118) rotate(47) scale(5 14)"><ellipse cx="0" cy="0" rx="1" ry="1" id="119" fill="rgb(37,14,10)" fill-opacity="0.501961" /></g>
<g transform="translate(79 156) rotate(322) scale(4 13)"><ellipse cx="0" cy="0" rx="1" ry="1" id="120" fill="rgb(15,0,1)" fill-opacity="0.501961" /></g>
<g transform="translate(247 143) rotate(46) scale(27 20)"><ellipse cx="0" cy="0" rx="1" ry="1" id="121" fill="rgb(15,2,2)" fill-opacity="0.501961" /></g>
<g transform="translate(72 167) rotate(161) scale(4 38)"><ellipse cx="0" cy="0" rx="1" ry="1" id="122" fill="rgb(108,55,27)" fill-opacity="0.501961" /></g>
<g transform="translate(140 80) rotate(181) scale(10 33)"><ellipse cx="0" cy="0" rx="1" ry="1" id="123" fill="rgb(36,11,8)" fill-opacity="0.501961" /></g>
<g transform="translate(334 46) rotate(181) scale(14 3)"><ellipse cx="0" cy="0" rx="1" ry="1" id="124" fill="rgb(16,1,2)" fill-opacity="0.501961" /></g>
<g transform="translate(28 249) rotate(104) scale(8 32)"><ellipse cx="0" cy="0" rx="1" ry="1" id="125" fill="rgb(0,0,0)" fill-opacity="0.501961" /></g>
<g transform="translate(213 188) rotate(261) scale(8 25)"><ellipse cx="0" cy="0" rx="1" ry="1" id="126" fill="rgb(9,2,2)" fill-opacity="0.501961" /></g>
<g transform="translate(275 193) rotate(186) scale(62 26)"><ellipse cx="0" cy="0" rx="1" ry="1" id="127" fill="rgb(16,2,3)" fill-opacity="0.501961" /></g>
<g transform="translate(33 137) rotate(40) scale(4 26)"><ellipse cx="0" cy="0" rx="1" ry="1" id="128" fill="rgb(91,46,26)" fill-opacity="0.501961" /></g>
<g transform="translate(176 127) rotate(304) scale(4 11)"><ellipse cx="0" cy="0" rx="1" ry="1" id="129" fill="rgb(191,132,83)" fill-opacity="0.501961" /></g>
<g transform="translate(159 270) rotate(167) scale(27 5)"><ellipse cx="0" cy="0" rx="1" ry="1" id="130" fill="rgb(67,30,9)" fill-opacity="0.501961" /></g>
<g transform="translate(216 184) rotate(268) scale(35 4)"><ellipse cx="0" cy="0" rx="1" ry="1" id="131" fill="rgb(56,14,12)" fill-opacity="0.501961" /></g>
<g transform="translate(259 99) rotate(37) scale(26 10)"><ellipse cx="0" cy="0" rx="1" ry="1" id="132" fill="rgb(24,7,4)" fill-opacity="0.501961" /></g>
<g transform="translate(199 61) rotate(200) scale(4 2)"><ellipse cx="0" cy="0" rx="1" ry="1" id="133" fill="rgb(225,39,24)" fill-opacity="0.501961" /></g>
<g transform="translate(144 260) rotate(335) scale(12 3)"><ellipse cx="0" cy="0" rx="1" ry="1" id="134" fill="rgb(105,47,27)" fill-opacity="0.501961" /></g>
<g transform="translate(218 107) rotate(261) scale(13 18)"><ellipse cx="0" cy="0" rx="1" ry="1" id="135" fill="rgb(156,32,29)" fill-opacity="0.501961" /></g>
<g transform="translate(76 8) rotate(265) scale(38 6)"><ellipse cx="0" cy="0" rx="1" ry="1" id="136" fill="rgb(0,0,0)" fill-opacity="0.501961" /></g>
<g transform="translate(115 155) rotate(214) scale(9 20)"><ellipse cx="0" cy="0" rx="1" ry="1" id="137" fill="rgb(45,9,6)" fill-opacity="0.501961" /></g>
<g transform="translate(120 233) rotate(347) scale(25 5)"><ellipse cx="0" cy="0" rx="1" ry="1" id="138" fill="rgb(73,21,14)" fill-opacity="0.501961" /></g>
<g transform="translate(124 60) rotate(194) scale(11 63)"><ellipse cx="0" cy="0" rx="1" ry="1" id="139" fill="rgb(3,1,2)" fill-opacity="0.501961" /></g>
<g transform="translate(91 227) rotate(16) scale(16 4)"><ellipse cx="0" cy="0" rx="1" ry="1" id="140" fill="rgb(86,28,18)" fill-opacity="0.501961" /></g>
<g transform="translate(366 259) rotate(122) scale(9 15)"><ellipse cx="0" cy="0" rx="1" ry="1" id="141" fill="rgb(57,17,13)" fill-opacity="0.501961" /></g>
<g transform="translate(178 111) rotate(270) scale(14 2)"><ellipse cx="0" cy="0" rx="1" ry="1" id="142" fill="rgb(82,4,15)" fill-opacity="0.501961" /></g>
<g transform="translate(30 150) rotate(192) scale(1 9)"><ellipse cx="0" cy="0" rx="1" ry="1" id="143" fill="rgb(19,0,0)" fill-opacity="0.501961" /></g>
<g transform="translate(25 20) rotate(195) scale(8 74)"><ellipse cx="0" cy="0" rx="1" ry="1" id="144" fill="rgb(22,22,22)" fill-opacity="0.501961" /></g>
<g transform="translate(340 61) rotate(322) scale(10 14)"><ellipse cx="0" cy="0" rx="1" ry="1" id="145" fill="rgb(73,17,18)" fill-opacity="0.501961" /></g>
<g transform="translate(180 74) rotate(126) scale(9 5)"><ellipse cx="0" cy="0" rx="1" ry="1" id="146" fill="rgb(67,11,13)" fill-opacity="0.501961" /></g>
<g transform="translate(107 38) rotate(92) scale(22 10)"><ellipse cx="0" cy="0" rx="1" ry="1" id="147" fill="rgb(24,20,9)" fill-opacity="0.501961" /></g>
<g transform="translate(205 72) rotate(5) scale(3 17)"><ellipse cx="0" cy="0" rx="1" ry="1" id="148" fill="rgb(123,48,32)" fill-opacity="0.501961" /></g>
<g transform="translate(95 189) rotate(332) scale(10 29)"><ellipse cx="0" cy="0" rx="1" ry="1" id="149" fill="rgb(38,6,6)" fill-opacity="0.501961" /></g>
<g transform="translate(69 121) rotate(215) scale(5 11)"><ellipse cx="0" cy="0" rx="1" ry="1" id="150" fill="rgb(41,13,8)" fill-opacity="0.501961" /></g>
<g transform="translate(352 190) rotate(92) scale(4 8)"><ellipse cx="0" cy="0" rx="1" ry="1" id="151" fill="rgb(156,48,28)" fill-opacity="0.501961" /></g>
<g transform="translate(180 237) rotate(77) scale(6 17)"><ellipse cx="0" cy="0" rx="1" ry="1" id="152" fill="rgb(70,19,13)" fill-opacity="0.501961" /></g>
<g transform="translate(184 140) rotate(8) scale(28 2)"><ellipse cx="0" cy="0" rx="1" ry="1" id="153" fill="rgb(33,0,3)" fill-opacity="0.501961" /></g>
<g transform="translate(148 174) rotate(249) scale(6 24)"><ellipse cx="0" cy="0" rx="1" ry="1" id="154" fill="rgb(97,13,18)" fill-opacity="0.501961" /></g>
<g transform="translate(100 269) rotate(105) scale(1 10)"><ellipse cx="0" cy="0" rx="1" ry="1" id="155" fill="rgb(121,85,48)" fill-opacity="0.501961" /></g>
<g transform="translate(58 208) rotate(218) scale(8 6)"><ellipse cx="0" cy="0" rx="1" ry="1" id="156" fill="rgb(74,36,18)" fill-opacity="0.501961" /></g>
<g transform="translate(24 78) rotate(26) scale(15 27)"><ellipse cx="0" cy="0" rx="1" ry="1" id="157" fill="rgb(12,2,2)" fill-opacity="0.501961" /></g>
<g transform="translate(329 13) rotate(21) scale(7 49)"><ellipse cx="0" cy="0" rx="1" ry="1" id="158" fill="rgb(84,18,15)" fill-opacity="0.501961" /></g>
<g transform="translate(44 90) rotate(286) scale(21 7)"><ellipse cx="0" cy="0" rx="1" ry="1" id="159" fill="rgb(83,55,36)" fill-opacity="0.501961" /></g>
<g transform="translate(0 15) rotate(89) scale(21 12)"><ellipse cx="0" cy="0" rx="1" ry="1" id="160" fill="rgb(57,41,32)" fill-opacity="0.501961" /></g>
<g transform="translate(55 123) rotate(63) scale(4 28)"><ellipse cx="0" cy="0" rx="1" ry="1" id="161" fill="rgb(73,33,20)" fill-opacity="0.501961" /></g>
<g transform="translate(269 267) rotate(318) scale(25 15)"><ellipse cx="0" cy="0" rx="1" ry="1" id="162" fill="rgb(19,2,3)" fill-opacity="0.501961" /></g>
<g transform="translate(190 119) rotate(229) scale(1 5)"><ellipse cx="0" cy="0" rx="1" ry="1" id="163" fill="rgb(0,0,0)" fill-opacity="0.501961" /></g>
<g transform="translate(210 48) rotate(133) scale(8 2)"><ellipse cx="0" cy="0" rx="1" ry="1" id="164" fill="rgb(131,32,34)" fill-opacity="0.501961" /></g>
<g transform="translate(94 116) rotate(41) scale(2 11)"><ellipse cx="0" cy="0" rx="1" ry="1" id="165" fill="rgb(0,0,0)" fill-opacity="0.501961" /></g>
<g transform="translate(174 113) rotate(336) scale(5 10)"><ellipse cx="0" cy="0" rx="1" ry="1" id="166" fill="rgb(87,5,15)" fill-opacity="0.501961" /></g>
<g transform="translate(194 111) rotate(31) scale(2 9)"><ellipse cx="0" cy="0" rx="1" ry="1" id="167" fill="rgb(61,5,17)" fill-opacity="0.501961" /></g>
<g transform="translate(50 145) rotate(48) scale(3 20)"><ellipse cx="0" cy="0" rx="1" ry="1" id="168" fill="rgb(147,100,62)" fill-opacity="0.501961" /></g>
<g transform="translate(45 126) rotate(264) scale(2 12)"><ellipse cx="0" cy="0" rx="1" ry="1" id="169" fill="rgb(117,77,47)" fill-opacity="0.501961" /></g>
<g transform="translate(247 111) rotate(62) scale(9 3)"><ellipse cx="0" cy="0" rx="1" ry="1" id="170" fill="rgb(132,25,26)" fill-opacity="0.501961" /></g>
<g transform="translate(172 254) rotate(325) scale(21 4)"><ellipse cx="0" cy="0" rx="1" ry="1" id="171" fill="rgb(18,0,2)" fill-opacity="0.501961" /></g>
<g transform="translate(53 186) rotate(280) scale(14 3)"><ellipse cx="0" cy="0" rx="1" ry="1" id="172" fill="rgb(32,7,4)" fill-opacity="0.501961" /></g>
<g transform="translate(379 27) rotate(155) scale(36 5)"><ellipse cx="0" cy="0" rx="1" ry="1" id="173" fill="rgb(150,47,32)" fill-opacity="0.501961" /></g>
<g transform="translate(48 53) rotate(93) scale(17 2)"><ellipse cx="0" cy="0" rx="1" ry="1" id="174" fill="rgb(108,86,71)" fill-opacity="0.501961" /></g>
<g transform="translate(155 217) rotate(287) scale(12 10)"><ellipse cx="0" cy="0" rx="1" ry="1" id="175" fill="rgb(8,0,0)" fill-opacity="0.501961" /></g>
<g transform="translate(162 21) rotate(89) scale(79 13)"><ellipse cx="0" cy="0" rx="1" ry="1" id="176" fill="rgb(2,2,1)" fill-opacity="0.501961" /></g>
<g transform="translate(110 235) rotate(215) scale(3 23)"><ellipse cx="0" cy="0" rx="1" ry="1" id="177" fill="rgb(26,0,3)" fill-opacity="0.501961" /></g>
<g transform="translate(197 117) rotate(258) scale(3 1)"><ellipse cx="0" cy="0" rx="1" ry="1" id="178" fill="rgb(190,157,129)" fill-opacity="0.501961" /></g>
<g transform="translate(333 239) rotate(92) scale(4 58)"><ellipse cx="0" cy="0" rx="1" ry="1" id="179" fill="rgb(39,8,6)" fill-opacity="0.501961" /></g>
<g transform="translate(332 197) rotate(107) scale(11 28)"><ellipse cx="0" cy="0" rx="1" ry="1" id="180" fill="rgb(15,2,3)" fill-opacity="0.501961" /></g>
<g transform="translate(233 56) rotate(154) scale(16 20)"><ellipse cx="0" cy="0" rx="1" ry="1" id="181" fill="rgb(9,0,0)" fill-opacity="0.501961" /></g>
<g transform="translate(197 223) rotate(96) scale(10 16)"><ellipse cx="0" cy="0" rx="1" ry="1" id="182" fill="rgb(12,0,1)" fill-opacity="0.501961" /></g>
<g transform="translate(215 69) rotate(209) scale(10 4)"><ellipse cx="0" cy="0" rx="1" ry="1" id="183" fill="rgb(113,9,20)" fill-opacity="0.501961" /></g>
<g transform="translate(50 19) rotate(172) scale(1 15)"><ellipse cx="0" cy="0" rx="1" ry="1" id="184" fill="rgb(76,63,48)" fill-opacity="0.501961" /></g>
<g transform="translate(18 147) rotate(260) scale(17 1)"><ellipse cx="0" cy="0" rx="1" ry="1" id="185" fill="rgb(139,92,59)" fill-opacity="0.501961" /></g>
<g transform="translate(159 282) rotate(266) scale(5 35)"><ellipse cx="0" cy="0" rx="1" ry="1" id="186" fill="rgb(17,1,3)" fill-opacity="0.501961" /></g>
<g transform="translate(69 104) rotate(99) scale(12 2)"><ellipse cx="0" cy="0" rx="1" ry="1" id="187" fill="rgb(44,8,0)" fill-opacity="0.501961" /></g>
<g transform="translate(322 72) rotate(295) scale(22 5)"><ellipse cx="0" cy="0" rx="1" ry="1" id="188" fill="rgb(65,0,12)" fill-opacity="0.501961" /></g>
<g transform="translate(353 163) rotate(271) scale(22 30)"><ellipse cx="0" cy="0" rx="1" ry="1" id="189" fill="rgb(27,1,3)" fill-opacity="0.501961" /></g>
<g transform="translate(255 117) rotate(287) scale(7 5)"><ellipse cx="0" cy="0" rx="1" ry="1" id="190" fill="rgb(55,6,9)" fill-opacity="0.501961" /></g>
<g transform="translate(254 40) rotate(93) scale(7 1)"><ellipse cx="0" cy="0" rx="1" ry="1" id="191" fill="rgb(84,37,23)" fill-opacity="0.501961" /></g>
<g transform="translate(107 77) rotate(100) scale(34 3)"><ellipse cx="0" cy="0" rx="1" ry="1" id="192" fill="rgb(25,21,9)" fill-opacity="0.501961" /></g>
<g transform="translate(204 38) rotate(62) scale(8 38)"><ellipse cx="0" cy="0" rx="1" ry="1" id="193" fill="rgb(19,2,3)" fill-opacity="0.501961" /></g>
<g transform="translate(131 134) rotate(324) scale(1 5)"><ellipse cx="0" cy="0" rx="1" ry="1" id="194" fill="rgb(176,141,91)" fill-opacity="0.501961" /></g>
<g transform="translate(80 245) rotate(20) scale(16 2)"><ellipse cx="0" cy="0" rx="1" ry="1" id="195" fill="rgb(94,26,22)" fill-opacity="0.501961" /></g>
<g transform="translate(128 168) rotate(2) scale(7 11)"><ellipse cx="0" cy="0" rx="1" ry="1" id="196" fill="rgb(85,19,16)" fill-opacity="0.501961" /></g>
<g transform="translate(282 39) rotate(189) scale(22 54)"><ellipse cx="0" cy="0" rx="1" ry="1" id="197" fill="rgb(3,3,1)" fill-opacity="0.501961" /></g>
<g transform="translate(316 130) rotate(295) scale(18 9)"><ellipse cx="0" cy="0" rx="1" ry="1" id="198" fill="rgb(36,0,4)" fill-opacity="0.501961" /></g>
<g transform="translate(247 133) rotate(72) scale(30 3)"><ellipse cx="0" cy="0" rx="1" ry="1" id="199" fill="rgb(26,3,5)" fill-opacity="0.501961" /></g>
<g transform="translate(311 173) rotate(250) scale(2 11)"><ellipse cx="0" cy="0" rx="1" ry="1" id="200" fill="rgb(63,10,9)" fill-opacity="0.501961" /></g>
<g transform="translate(174 207) rotate(281) scale(36 5)"><ellipse cx="0" cy="0" rx="1" ry="1" id="201" fill="rgb(110,14,22)" fill-opacity="0.501961" /></g>
<g transform="translate(193 128) rotate(0) scale(10 1)"><ellipse cx="0" cy="0" rx="1" ry="1" id="202" fill="rgb(157,79,47)" fill-opacity="0.501961" /></g>
<g transform="translate(170 125) rotate(244) scale(6 2)"><ellipse cx="0" cy="0" rx="1" ry="1" id="203" fill="rgb(220,161,112)" fill-opacity="0.501961" /></g>
<g transform="translate(287 244) rotate(31) scale(6 2)"><ellipse cx="0" cy="0" rx="1" ry="1" id="204" fill="rgb(124,26,29)" fill-opacity="0.501961" /></g>
<g transform="translate(33 54) rotate(106) scale(26 10)"><ellipse cx="0" cy="0" rx="1" ry="1" id="205" fill="rgb(12,5,3)" fill-opacity="0.501961" /></g>
<g transform="translate(151 135) rotate(8) scale(7 2)"><ellipse cx="0" cy="0" rx="1" ry="1" id="206" fill="rgb(123,79,43)" fill-opacity="0.501961" /></g>
<g transform="translate(88 277) rotate(273) scale(7 23)"><ellipse cx="0" cy="0" rx="1" ry="1" id="207" fill="rgb(21,5,4)" fill-opacity="0.501961" /></g>
<g transform="translate(29 202) rotate(304) scale(5 5)"><ellipse cx="0" cy="0" rx="1" ry="1" id="208" fill="rgb(61,46,21)" fill-opacity="0.501961" /></g>
<g transform="translate(165 136) rotate(351) scale(2 14)"><ellipse cx="0" cy="0" rx="1" ry="1" id="209" fill="rgb(45,0,5)" fill-opacity="0.501961" /></g>
<g transform="translate(360 0) rotate(111) scale(27 7)"><ellipse cx="0" cy="0" rx="1" ry="1" id="210" fill="rgb(54,3,9)" fill-opacity="0.501961" /></g>
<g transform="translate(8 283) rotate(95) scale(6 38)"><ellipse cx="0" cy="0" rx="1" ry="1" id="211" fill="rgb(41,12,9)" fill-opacity="0.501961" /></g>
<g transform="translate(100 135) rotate(269) scale(2 11)"><ellipse cx="0" cy="0" rx="1" ry="1" id="212" fill="rgb(217,177,121)" fill-opacity="0.501961" /></g>
<g transform="translate(30 220) rotate(141) scale(9 19)"><ellipse cx="0" cy="0" rx="1" ry="1" id="213" fill="rgb(12,2,2)" fill-opacity="0.501961" /></g>
<g transform="translate(16 69) rotate(101) scale(18 8)"><ellipse cx="0" cy="0" rx="1" ry="1" id="214" fill="rgb(18,20,21)" fill-opacity="0.501961" /></g>
<g transform="translate(65 221) rotate(46) scale(7 7)"><ellipse cx="0" cy="0" rx="1" ry="1" id="215" fill="rgb(7,0,1)" fill-opacity="0.501961" /></g>
<g transform="translate(344 114) rotate(346) scale(5 6)"><ellipse cx="0" cy="0" rx="1" ry="1" id="216" fill="rgb(2,1,0)" fill-opacity="0.501961" /></g>
<g transform="translate(211 74) rotate(266) scale(3 7)"><ellipse cx="0" cy="0" rx="1" ry="1" id="217" fill="rgb(32,6,3)" fill-opacity="0.501961" /></g>
<g transform="translate(357 139) rotate(132) scale(14 21)"><ellipse cx="0" cy="0" rx="1" ry="1" id="218" fill="rgb(12,3,2)" fill-opacity="0.501961" /></g>
<g transform="translate(323 261) rotate(150) scale(27 5)"><ellipse cx="0" cy="0" rx="1" ry="1" id="219" fill="rgb(0,1,3)" fill-opacity="0.501961" /></g>
<g transform="translate(327 151) rotate(88) scale(37 4)"><ellipse cx="0" cy="0" rx="1" ry="1" id="220" fill="rgb(51,5,8)" fill-opacity="0.501961" /></g>
<g transform="translate(372 49) rotate(205) scale(4 29)"><ellipse cx="0" cy="0" rx="1" ry="1" id="221" fill="rgb(98,23,21)" fill-opacity="0.501961" /></g>
<g transform="translate(202 9) rotate(268) scale(20 109)"><ellipse cx="0" cy="0" rx="1" ry="1" id="222" fill="rgb(5,4,3)" fill-opacity="0.501961" /></g>
<g transform="translate(174 260) rotate(236) scale(1 19)"><ellipse cx="0" cy="0" rx="1" ry="1" id="223" fill="rgb(92,44,18)" fill-opacity="0.501961" /></g>
<g transform="translate(207 208) rotate(214) scale(9 5)"><ellipse cx="0" cy="0" rx="1" ry="1" id="224" fill="rgb(62,20,13)" fill-opacity="0.501961" /></g>
<g transform="translate(201 84) rotate(12) scale(1 3)"><ellipse cx="0" cy="0" rx="1" ry="1" id="225" fill="rgb(184,122,75)" fill-opacity="0.501961" /></g>
<g transform="translate(383 78) rotate(269) scale(37 9)"><ellipse cx="0" cy="0" rx="1" ry="1" id="226" fill="rgb(57,7,9)" fill-opacity="0.501961" /></g>
<g transform="translate(218 184) rotate(91) scale(5 25)"><ellipse cx="0" cy="0" rx="1" ry="1" id="227" fill="rgb(8,1,1)" fill-opacity="0.501961" /></g>
<g transform="translate(366 190) rotate(284) scale(3 9)"><ellipse cx="0" cy="0" rx="1" ry="1" id="228" fill="rgb(153,45,26)" fill-opacity="0.501961" /></g>
<g transform="translate(191 171) rotate(322) scale(29 2)"><ellipse cx="0" cy="0" rx="1" ry="1" id="229" fill="rgb(95,9,18)" fill-opacity="0.501961" /></g>
<g transform="translate(111 256) rotate(256) scale(5 22)"><ellipse cx="0" cy="0" rx="1" ry="1" id="230" fill="rgb(88,51,23)" fill-opacity="0.501961" /></g>
<g transform="translate(214 113) rotate(128) scale(13 1)"><ellipse cx="0" cy="0" rx="1" ry="1" id="231" fill="rgb(92,16,25)" fill-opacity="0.501961" /></g>
<g transform="translate(373 7) rotate(202) scale(4 26)"><ellipse cx="0" cy="0" rx="1" ry="1" id="232" fill="rgb(97,40,22)" fill-opacity="0.501961" /></g>
<g transform="translate(19 119) rotate(95) scale(4 7)"><ellipse cx="0" cy="0" rx="1" ry="1" id="233" fill="rgb(92,59,39)" fill-opacity="0.501961" /></g>
<g transform="translate(7 159) rotate(351) scale(11 20)"><ellipse cx="0" cy="0" rx="1" ry="1" id="234" fill="rgb(14,0,2)" fill-opacity="0.501961" /></g>
<g transform="translate(215 79) rotate(90) scale(11 2)"><ellipse cx="0" cy="0" rx="1" ry="1" id="235" fill="rgb(13,0,0)" fill-opacity="0.501961" /></g>
<g transform="translate(16 105) rotate(199) scale(19 8)"><ellipse cx="0" cy="0" rx="1" ry="1" id="236" fill="rgb(13,0,0)" fill-opacity="0.501961" /></g>
<g transform="translate(314 108) rotate(96) scale(5 4)"><ellipse cx="0" cy="0" rx="1" ry="1" id="237" fill="rgb(94,28,21)" fill-opacity="0.501961" /></g>
<g transform="translate(231 167) rotate(221) scale(8 4)"><ellipse cx="0" cy="0" rx="1" ry="1" id="238" fill="rgb(64,17,13)" fill-opacity="0.501961" /></g>
<g transform="translate(160 252) rotate(142) scale(12 7)"><ellipse cx="0" cy="0" rx="1" ry="1" id="239" fill="rgb(82,12,15)" fill-opacity="0.501961" /></g>
<g transform="translate(224 143) rotate(343) scale(3 3)"><ellipse cx="0" cy="0" rx="1" ry="1" id="240" fill="rgb(106,18,19)" fill-opacity="0.501961" /></g>
<g transform="translate(126 126) rotate(180) scale(5 1)"><ellipse cx="0" cy="0" rx="1" ry="1" id="241" fill="rgb(180,136,71)" fill-opacity="0.501961" /></g>
<g transform="translate(123 97) rotate(35) scale(16 27)"><ellipse cx="0" cy="0" rx="1" ry="1" id="242" fill="rgb(15,3,2)" fill-opacity="0.501961" /></g>
<g transform="translate(62 191) rotate(273) scale(17 1)"><ellipse cx="0" cy="0" rx="1" ry="1" id="243" fill="rgb(96,41,14)" fill-opacity="0.501961" /></g>
<g transform="translate(278 104) rotate(56) scale(18 22)"><ellipse cx="0" cy="0" rx="1" ry="1" id="244" fill="rgb(20,7,3)" fill-opacity="0.501961" /></g>
<g transform="translate(19 123) rotate(157) scale(9 2)"><ellipse cx="0" cy="0" rx="1" ry="1" id="245" fill="rgb(43,6,0)" fill-opacity="0.501961" /></g>
<g transform="translate(242 250) rotate(349) scale(31 4)"><ellipse cx="0" cy="0" rx="1" ry="1" id="246" fill="rgb(66,25,13)" fill-opacity="0.501961" /></g>
<g transform="translate(179 151) rotate(109) scale(7 14)"><ellipse cx="0" cy="0" rx="1" ry="1" id="247" fill="rgb(116,23,24)" fill-opacity="0.501961" /></g>
<g transform="translate(124 140) rotate(26) scale(9 5)"><ellipse cx="0" cy="0" rx="1" ry="1" id="248" fill="rgb(90,34,20)" fill-opacity="0.501961" /></g>
<g transform="translate(324 220) rotate(93) scale(9 34)"><ellipse cx="0" cy="0" rx="1" ry="1" id="249" fill="rgb(31,7,6)" fill-opacity="0.501961" /></g>
<g transform="translate(324 278) rotate(237) scale(46 27)"><ellipse cx="0" cy="0" rx="1" ry="1" id="250" fill="rgb(12,2,3)" fill-opacity="0.501961" /></g>
<g transform="translate(139 136) rotate(254) scale(15 2)"><ellipse cx="0" cy="0" rx="1" ry="1" id="251" fill="rgb(25,4,3)" fill-opacity="0.501961" /></g>
<g transform="translate(96 144) rotate(193) scale(2 6)"><ellipse cx="0" cy="0" rx="1" ry="1" id="252" fill="rgb(55,11,9)" fill-opacity="0.501961" /></g>
<g transform="translate(324 47) rotate(203) scale(7 12)"><ellipse cx="0" cy="0" rx="1" ry="1" id="253" fill="rgb(44,4,7)" fill-opacity="0.501961" /></g>
</svg>