<?xml version="1.0" standalone="no"?>
<svg xmlns="http://www.w3.org/2000/svg" version="1.2" baseProfile="tiny" width="425" height="160" viewBox="0 0 425 160">
<rect id="background" x="0" y="0" width="425" height="160" fill="rgb(218,218,218)" fill-opacity="1"/>
<polygon points="120,56 160,92 100,158 60,122" id="0" fill="rgb(0,0,0)" fill-opacity="0.501961"/>
<polygon points="22,106 137,106 137,137 22,137" id="1" fill="rgb(0,0,0)" fill-opacity="0.501961"/>
<polygon points="58,22 95,22 95,53 58,53" id="2" fill="rgb(0,0,0)" fill-opacity="0.501961"/>
<polygon points="389,91 164,92 163,71 388,70" id="3" fill="rgb(28,28,28)" fill-opacity="0.501961"/>
<polygon points="106,93 107,63 137,64 136,94" id="4" fill="rgb(0,0,0)" fill-opacity="0.501961"/>
<polygon points="95,52 64,53 63,23 94,22" id="5" fill="rgb(0,0,0)" fill-opacity="0.501961"/>
<polygon points="16,100 53,100 53,137 16,137" id="6" fill="rgb(0,0,0)" fill-opacity="0.501961"/>
<polygon points="201,125 177,149 128,101 151,77" id="7" fill="rgb(255,255,255)" fill-opacity="0.501961"/>
<polygon points="95,56 104,55 105,159 96,160" id="8" fill="rgb(255,255,255)" fill-opacity="0.501961"/>
<polygon points="30,57 144,58 143,60 29,59" id="9" fill="rgb(0,0,0)" fill-opacity="0.501961"/>
<polygon points="425,133 61,184 56,148 420,97" id="10" fill="rgb(255,255,255)" fill-opacity="0.501961"/>
<polygon points="331,153 297,162 276,84 310,74" id="11" fill="rgb(255,255,255)" fill-opacity="0.501961"/>
<polygon points="97,105 61,104 62,61 98,62" id="12" fill="rgb(255,255,255)" fill-opacity="0.501961"/>
<polygon points="144,0 424,0 425,68 145,69" id="13" fill="rgb(255,255,255)" fill-opacity="0.501961"/>
<polygon points="100,15 101,15 101,136 100,136" id="14" fill="rgb(0,0,0)" fill-opacity="0.501961"/>
<polygon points="136,137 106,136 107,106 137,107" id="15" fill="rgb(0,0,0)" fill-opacity="0.501961"/>
<polygon points="205,164 190,101 256,86 271,149" id="16" fill="rgb(255,255,255)" fill-opacity="0.501961"/>
<polygon points="95,107 94,136 64,135 65,106" id="17" fill="rgb(0,0,0)" fill-opacity="0.501961"/>
<polygon points="298,70 303,71 302,95 297,94" id="18" fill="rgb(0,0,0)" fill-opacity="0.501961"/>
<polygon points="67,52 68,22 95,23 94,53" id="19" fill="rgb(0,0,0)" fill-opacity="0.501961"/>
<polygon points="392,0 426,0 423,160 389,159" id="20" fill="rgb(255,255,255)" fill-opacity="0.501961"/>
<polygon points="107,95 106,65 135,64 136,94" id="21" fill="rgb(0,0,0)" fill-opacity="0.501961"/>
<polygon points="143,102 51,101 51,100 144,101" id="22" fill="rgb(0,0,0)" fill-opacity="0.501961"/>
<polygon points="16,142 142,141 143,143 17,144" id="23" fill="rgb(0,0,0)" fill-opacity="0.501961"/>
<polygon points="142,17 16,18 15,16 141,15" id="24" fill="rgb(0,0,0)" fill-opacity="0.501961"/>
<polygon points="62,57 22,56 23,18 63,19" id="25" fill="rgb(255,255,255)" fill-opacity="0.501961"/>
<polygon points="52,106 53,136 23,137 22,107" id="26" fill="rgb(0,0,0)" fill-opacity="0.501961"/>
<polygon points="329,1 335,0 340,144 334,145" id="27" fill="rgb(255,255,255)" fill-opacity="0.501961"/>
<polygon points="102,96 425,96 425,105 102,105" id="28" fill="rgb(255,255,255)" fill-opacity="0.501961"/>
<polygon points="63,138 55,139 54,106 62,105" id="29" fill="rgb(255,255,255)" fill-opacity="0.501961"/>
<polygon points="142,25 143,25 143,142 142,142" id="30" fill="rgb(0,0,0)" fill-opacity="0.501961"/>
<polygon points="102,19 139,18 140,56 103,57" id="31" fill="rgb(255,255,255)" fill-opacity="0.501961"/>
<polygon points="144,94 424,93 425,159 145,160" id="32" fill="rgb(255,255,255)" fill-opacity="0.501961"/>
<polygon points="99,96 20,99 19,63 98,60" id="33" fill="rgb(255,255,255)" fill-opacity="0.501961"/>
<polygon points="60,143 58,144 57,40 59,39" id="34" fill="rgb(0,0,0)" fill-opacity="0.501961"/>
<polygon points="376,74 370,89 362,86 369,71" id="35" fill="rgb(255,255,255)" fill-opacity="0.501961"/>
<polygon points="19,137 18,96 20,95 21,136" id="36" fill="rgb(255,255,255)" fill-opacity="0.501961"/>
<polygon points="0,0 425,0 425,15 0,15" id="37" fill="rgb(255,255,255)" fill-opacity="0.501961"/>
<polygon points="0,145 112,144 113,159 0,160" id="38" fill="rgb(255,255,255)" fill-opacity="0.501961"/>
<polygon points="220,64 102,63 103,60 221,61" id="39" fill="rgb(255,255,255)" fill-opacity="0.501961"/>
<polygon points="236,72 245,69 250,84 240,87" id="40" fill="rgb(0,0,0)" fill-opacity="0.501961"/>
<polygon points="374,69 380,69 380,92 374,92" id="41" fill="rgb(0,0,0)" fill-opacity="0.501961"/>
<polygon points="187,66 188,92 184,93 183,67" id="42" fill="rgb(255,255,255)" fill-opacity="0.501961"/>
<polygon points="353,93 349,90 363,69 368,72" id="43" fill="rgb(0,0,0)" fill-opacity="0.501961"/>
<polygon points="0,103 52,102 53,105 0,106" id="44" fill="rgb(255,255,255)" fill-opacity="0.501961"/>
<polygon points="264,0 269,0 269,159 264,159" id="45" fill="rgb(255,255,255)" fill-opacity="0.501961"/>
<polygon points="314,71 319,71 319,92 314,92" id="46" fill="rgb(0,0,0)" fill-opacity="0.501961"/>
<polygon points="18,50 17,81 15,80 16,49" id="47" fill="rgb(0,0,0)" fill-opacity="0.501961"/>
<polygon points="162,158 145,159 144,16 161,15" id="48" fill="rgb(255,255,255)" fill-opacity="0.501961"/>
<polygon points="285,92 269,91 270,88 286,89" id="49" fill="rgb(0,0,0)" fill-opacity="0.501961"/>
<polygon points="201,74 207,72 212,92 207,94" id="50" fill="rgb(255,255,255)" fill-opacity="0.501961"/>
<polygon points="226,86 217,87 216,75 225,74" id="51" fill="rgb(255,255,255)" fill-opacity="0.501961"/>
<polygon points="345,92 339,93 338,71 344,70" id="52" fill="rgb(0,0,0)" fill-opacity="0.501961"/>
<polygon points="0,0 14,0 15,141 0,142" id="53" fill="rgb(255,255,255)" fill-opacity="0.501961"/>
<polygon points="141,141 139,142 138,66 140,65" id="54" fill="rgb(255,255,255)" fill-opacity="0.501961"/>
<polygon points="344,22 347,21 348,99 345,100" id="55" fill="rgb(255,255,255)" fill-opacity="0.501961"/>
<polygon points="233,92 234,69 237,70 236,93" id="56" fill="rgb(255,255,255)" fill-opacity="0.501961"/>
<polygon points="305,18 208,75 182,31 280,-25" id="57" fill="rgb(255,255,255)" fill-opacity="0.501961"/>
<polygon points="262,71 263,90 258,91 257,72" id="58" fill="rgb(0,0,0)" fill-opacity="0.501961"/>
<polygon points="283,88 286,73 296,75 293,90" id="59" fill="rgb(255,255,255)" fill-opacity="0.501961"/>
<polygon points="355,72 359,75 348,89 344,86" id="60" fill="rgb(255,255,255)" fill-opacity="0.501961"/>
<polygon points="380,69 144,66 145,-2 381,0" id="61" fill="rgb(255,255,255)" fill-opacity="0.501961"/>
<polygon points="271,70 275,70 275,90 271,90" id="62" fill="rgb(0,0,0)" fill-opacity="0.501961"/>
<polygon points="196,70 195,91 189,90 190,69" id="63" fill="rgb(0,0,0)" fill-opacity="0.501961"/>
<polygon points="137,136 109,137 108,107 136,106" id="64" fill="rgb(0,0,0)" fill-opacity="0.501961"/>
<polygon points="140,101 62,100 62,99 141,100" id="65" fill="rgb(0,0,0)" fill-opacity="0.501961"/>
<polygon points="15,40 16,18 18,19 17,41" id="66" fill="rgb(0,0,0)" fill-opacity="0.501961"/>
<polygon points="76,138 117,137 118,140 77,141" id="67" fill="rgb(255,255,255)" fill-opacity="0.501961"/>
<polygon points="164,79 171,90 168,92 160,82" id="68" fill="rgb(0,0,0)" fill-opacity="0.501961"/>
<polygon points="18,61 57,61 57,99 18,99" id="69" fill="rgb(255,255,255)" fill-opacity="0.501961"/>
<polygon points="168,75 205,74 206,78 169,79" id="70" fill="rgb(255,255,255)" fill-opacity="0.501961"/>
<polygon points="189,73 194,72 195,87 190,88" id="71" fill="rgb(0,0,0)" fill-opacity="0.501961"/>
<polygon points="329,94 321,82 326,79 334,91" id="72" fill="rgb(0,0,0)" fill-opacity="0.501961"/>
<polygon points="20,18 57,18 57,57 20,57" id="73" fill="rgb(255,255,255)" fill-opacity="0.501961"/>
<polygon points="106,94 107,64 137,65 136,95" id="74" fill="rgb(0,0,0)" fill-opacity="0.501961"/>
<polygon points="193,84 208,83 209,87 194,88" id="75" fill="rgb(255,255,255)" fill-opacity="0.501961"/>
<polygon points="0,144 425,144 425,160 0,160" id="76" fill="rgb(255,255,255)" fill-opacity="0.501961"/>
<polygon points="258,69 263,72 251,88 247,86" id="77" fill="rgb(0,0,0)" fill-opacity="0.501961"/>
<polygon points="58,15 59,15 59,117 58,117" id="78" fill="rgb(0,0,0)" fill-opacity="0.501961"/>
<polygon points="64,107 93,106 94,136 65,137" id="79" fill="rgb(0,0,0)" fill-opacity="0.501961"/>
<polygon points="304,94 303,75 312,74 313,93" id="80" fill="rgb(255,255,255)" fill-opacity="0.501961"/>
<polygon points="209,85 214,70 218,72 213,86" id="81" fill="rgb(0,0,0)" fill-opacity="0.501961"/>
<polygon points="271,71 327,70 328,72 272,73" id="82" fill="rgb(0,0,0)" fill-opacity="0.501961"/>
<polygon points="17,84 18,108 16,109 15,85" id="83" fill="rgb(0,0,0)" fill-opacity="0.501961"/>
<polygon points="64,23 94,22 95,51 65,52" id="84" fill="rgb(0,0,0)" fill-opacity="0.501961"/>
<polygon points="374,117 370,118 369,69 373,68" id="85" fill="rgb(255,255,255)" fill-opacity="0.501961"/>
<polygon points="60,89 63,89 63,138 60,138" id="86" fill="rgb(255,255,255)" fill-opacity="0.501961"/>
<polygon points="60,19 63,19 63,54 60,54" id="87" fill="rgb(255,255,255)" fill-opacity="0.501961"/>
<polygon points="380,74 424,73 425,87 381,88" id="88" fill="rgb(255,255,255)" fill-opacity="0.501961"/>
<polygon points="226,71 229,70 232,86 229,87" id="89" fill="rgb(0,0,0)" fill-opacity="0.501961"/>
<polygon points="167,80 171,78 177,86 172,89" id="90" fill="rgb(255,255,255)" fill-opacity="0.501961"/>
<polygon points="380,83 379,80 389,79 390,82" id="91" fill="rgb(0,0,0)" fill-opacity="0.501961"/>
<polygon points="98,99 60,98 61,60 99,61" id="92" fill="rgb(255,255,255)" fill-opacity="0.501961"/>
<polygon points="96,103 99,103 99,141 96,141" id="93" fill="rgb(255,255,255)" fill-opacity="0.501961"/>
<polygon points="22,135 23,106 50,107 49,136" id="94" fill="rgb(0,0,0)" fill-opacity="0.501961"/>
<polygon points="298,92 297,72 301,71 302,91" id="95" fill="rgb(0,0,0)" fill-opacity="0.501961"/>
<polygon points="15,59 143,58 143,58 15,59" id="96" fill="rgb(0,0,0)" fill-opacity="0.501961"/>
<polygon points="256,69 252,77 247,75 250,67" id="97" fill="rgb(255,255,255)" fill-opacity="0.501961"/>
<polygon points="102,62 105,62 105,141 102,141" id="98" fill="rgb(255,255,255)" fill-opacity="0.501961"/>
<polygon points="161,77 175,68 177,71 163,80" id="99" fill="rgb(0,0,0)" fill-opacity="0.501961"/>
<polygon points="368,92 348,91 349,88 369,89" id="100" fill="rgb(0,0,0)" fill-opacity="0.501961"/>
<polygon points="183,90 176,91 175,81 182,80" id="101" fill="rgb(0,0,0)" fill-opacity="0.501961"/>
<polygon points="102,56 103,19 141,20 140,57" id="102" fill="rgb(255,255,255)" fill-opacity="0.501961"/>
<polygon points="275,74 295,74 295,78 275,78" id="103" fill="rgb(255,255,255)" fill-opacity="0.501961"/>
<polygon points="248,91 246,92 243,81 245,80" id="104" fill="rgb(255,255,255)" fill-opacity="0.501961"/>
<polygon points="232,78 219,71 220,69 233,76" id="105" fill="rgb(0,0,0)" fill-opacity="0.501961"/>
<polygon points="203,5 423,-5 426,60 206,71" id="106" fill="rgb(255,255,255)" fill-opacity="0.501961"/>
<polygon points="16,20 17,20 17,118 16,118" id="107" fill="rgb(0,0,0)" fill-opacity="0.501961"/>
<polygon points="0,0 15,0 15,159 0,159" id="108" fill="rgb(255,255,255)" fill-opacity="0.501961"/>
<polygon points="244,70 242,93 238,92 240,69" id="109" fill="rgb(0,0,0)" fill-opacity="0.501961"/>
<polygon points="389,92 374,91 375,88 390,89" id="110" fill="rgb(0,0,0)" fill-opacity="0.501961"/>
<polygon points="144,93 425,93 425,160 144,160" id="111" fill="rgb(255,255,255)" fill-opacity="0.501961"/>
<polygon points="56,105 18,104 19,102 57,103" id="112" fill="rgb(255,255,255)" fill-opacity="0.501961"/>
<polygon points="314,61 313,79 311,78 312,60" id="113" fill="rgb(255,255,255)" fill-opacity="0.501961"/>
<polygon points="20,137 18,136 19,102 21,103" id="114" fill="rgb(255,255,255)" fill-opacity="0.501961"/>
<polygon points="375,71 389,70 390,72 376,73" id="115" fill="rgb(0,0,0)" fill-opacity="0.501961"/>
<polygon points="332,59 338,59 338,89 332,89" id="116" fill="rgb(255,255,255)" fill-opacity="0.501961"/>
<polygon points="233,67 237,68 236,111 232,110" id="117" fill="rgb(255,255,255)" fill-opacity="0.501961"/>
<polygon points="216,92 215,89 229,88 230,91" id="118" fill="rgb(0,0,0)" fill-opacity="0.501961"/>
<polygon points="18,18 57,18 57,57 18,57" id="119" fill="rgb(255,255,255)" fill-opacity="0.501961"/>
<polygon points="106,106 137,106 137,137 106,137" id="120" fill="rgb(0,0,0)" fill-opacity="0.501961"/>
<polygon points="137,94 107,95 106,65 136,64" id="121" fill="rgb(0,0,0)" fill-opacity="0.501961"/>
<polygon points="190,70 203,70 203,73 190,73" id="122" fill="rgb(0,0,0)" fill-opacity="0.501961"/>
<polygon points="0,0 425,0 425,15 0,15" id="123" fill="rgb(255,255,255)" fill-opacity="0.501961"/>
<polygon points="144,0 392,0 392,69 144,69" id="124" fill="rgb(255,255,255)" fill-opacity="0.501961"/>
<polygon points="328,80 324,73 327,71 331,78" id="125" fill="rgb(0,0,0)" fill-opacity="0.501961"/>
<polygon points="275,82 276,79 285,80 284,83" id="126" fill="rgb(0,0,0)" fill-opacity="0.501961"/>
<polygon points="347,73 350,74 348,93 345,92" id="127" fill="rgb(255,255,255)" fill-opacity="0.501961"/>
<polygon points="370,78 373,85 361,89 359,83" id="128" fill="rgb(255,255,255)" fill-opacity="0.501961"/>
<polygon points="268,117 263,116 264,69 269,70" id="129" fill="rgb(255,255,255)" fill-opacity="0.501961"/>
<polygon points="54,103 57,103 57,140 54,140" id="130" fill="rgb(255,255,255)" fill-opacity="0.501961"/>
<polygon points="351,73 352,70 363,71 362,74" id="131" fill="rgb(0,0,0)" fill-opacity="0.501961"/>
<polygon points="144,35 143,36 142,14 143,14" id="132" fill="rgb(0,0,0)" fill-opacity="0.501961"/>
<polygon points="191,90 202,89 203,91 192,92" id="133" fill="rgb(0,0,0)" fill-opacity="0.501961"/>
<polygon points="325,114 320,87 324,86 329,113" id="134" fill="rgb(255,255,255)" fill-opacity="0.501961"/>
<polygon points="346,73 354,74 353,83 345,82" id="135" fill="rgb(255,255,255)" fill-opacity="0.501961"/>
<polygon points="203,88 201,87 213,63 216,65" id="136" fill="rgb(255,255,255)" fill-opacity="0.501961"/>
<polygon points="153,64 165,68 156,95 144,91" id="137" fill="rgb(255,255,255)" fill-opacity="0.501961"/>
<polygon points="233,78 232,89 227,88 228,77" id="138" fill="rgb(0,0,0)" fill-opacity="0.501961"/>
<polygon points="209,84 214,95 209,97 205,86" id="139" fill="rgb(255,255,255)" fill-opacity="0.501961"/>
<polygon points="142,93 142,93 143,143 143,143" id="140" fill="rgb(0,0,0)" fill-opacity="0.501961"/>
<polygon points="217,86 216,77 226,76 227,85" id="141" fill="rgb(255,255,255)" fill-opacity="0.501961"/>
<polygon points="93,137 64,136 65,109 94,110" id="142" fill="rgb(0,0,0)" fill-opacity="0.501961"/>
<polygon points="99,98 62,99 61,61 98,60" id="143" fill="rgb(255,255,255)" fill-opacity="0.501961"/>
<polygon points="194,83 193,80 203,79 204,82" id="144" fill="rgb(0,0,0)" fill-opacity="0.501961"/>
<polygon points="303,74 312,73 314,101 305,102" id="145" fill="rgb(255,255,255)" fill-opacity="0.501961"/>
<polygon points="380,86 380,83 402,88 401,91" id="146" fill="rgb(255,255,255)" fill-opacity="0.501961"/>
<polygon points="163,87 164,84 175,90 173,92" id="147" fill="rgb(0,0,0)" fill-opacity="0.501961"/>
<polygon points="276,85 271,86 269,70 274,69" id="148" fill="rgb(0,0,0)" fill-opacity="0.501961"/>
<polygon points="65,22 95,22 95,53 65,53" id="149" fill="rgb(0,0,0)" fill-opacity="0.501961"/>
<polygon points="142,24 142,24 143,73 143,73" id="150" fill="rgb(0,0,0)" fill-opacity="0.501961"/>
<polygon points="258,70 263,70 263,92 258,92" id="151" fill="rgb(0,0,0)" fill-opacity="0.501961"/>
<polygon points="184,89 185,72 188,73 187,90" id="152" fill="rgb(255,255,255)" fill-opacity="0.501961"/>
<polygon points="380,83 425,84 424,89 379,88" id="153" fill="rgb(255,255,255)" fill-opacity="0.501961"/>
<polygon points="182,73 168,74 167,71 181,70" id="154" fill="rgb(0,0,0)" fill-opacity="0.501961"/>
<polygon points="236,85 237,87 222,99 221,97" id="155" fill="rgb(255,255,255)" fill-opacity="0.501961"/>
<polygon points="255,80 257,79 258,110 256,111" id="156" fill="rgb(255,255,255)" fill-opacity="0.501961"/>
<polygon points="316,79 321,81 317,92 313,91" id="157" fill="rgb(0,0,0)" fill-opacity="0.501961"/>
<polygon points="61,20 62,18 95,19 94,21" id="158" fill="rgb(255,255,255)" fill-opacity="0.501961"/>
<polygon points="80,139 140,138 141,140 81,141" id="159" fill="rgb(255,255,255)" fill-opacity="0.501961"/>
<polygon points="138,61 140,60 141,90 139,91" id="160" fill="rgb(255,255,255)" fill-opacity="0.501961"/>
<polygon points="365,69 368,71 354,91 350,89" id="161" fill="rgb(0,0,0)" fill-opacity="0.501961"/>
<polygon points="189,71 193,70 194,90 190,91" id="162" fill="rgb(0,0,0)" fill-opacity="0.501961"/>
<polygon points="16,144 17,124 17,124 16,144" id="163" fill="rgb(0,0,0)" fill-opacity="0.501961"/>
<polygon points="378,73 379,88 375,89 374,74" id="164" fill="rgb(0,0,0)" fill-opacity="0.501961"/>
<polygon points="176,84 177,87 176,88 175,84" id="165" fill="rgb(255,255,255)" fill-opacity="0.501961"/>
<polygon points="286,91 271,92 270,90 285,89" id="166" fill="rgb(0,0,0)" fill-opacity="0.501961"/>
<polygon points="340,93 339,80 343,79 344,92" id="167" fill="rgb(0,0,0)" fill-opacity="0.501961"/>
<polygon points="329,73 272,72 273,70 330,71" id="168" fill="rgb(0,0,0)" fill-opacity="0.501961"/>
<polygon points="141,98 105,99 104,97 140,96" id="169" fill="rgb(255,255,255)" fill-opacity="0.501961"/>
<polygon points="133,59 17,58 17,58 133,59" id="170" fill="rgb(0,0,0)" fill-opacity="0.501961"/>
<polygon points="226,73 216,74 215,71 225,70" id="171" fill="rgb(0,0,0)" fill-opacity="0.501961"/>
<polygon points="162,88 166,72 169,73 165,89" id="172" fill="rgb(0,0,0)" fill-opacity="0.501961"/>
<polygon points="294,77 296,94 289,95 287,78" id="173" fill="rgb(255,255,255)" fill-opacity="0.501961"/>
<polygon points="218,91 210,86 211,83 220,89" id="174" fill="rgb(0,0,0)" fill-opacity="0.501961"/>
<polygon points="144,66 157,63 162,88 148,91" id="175" fill="rgb(255,255,255)" fill-opacity="0.501961"/>
<polygon points="288,91 287,91 286,43 287,43" id="176" fill="rgb(255,255,255)" fill-opacity="0.501961"/>
<polygon points="332,69 338,70 337,88 331,87" id="177" fill="rgb(255,255,255)" fill-opacity="0.501961"/>
<polygon points="293,80 294,85 277,88 276,84" id="178" fill="rgb(255,255,255)" fill-opacity="0.501961"/>
<polygon points="195,73 194,71 205,70 206,72" id="179" fill="rgb(0,0,0)" fill-opacity="0.501961"/>
<polygon points="243,91 239,92 238,72 242,71" id="180" fill="rgb(0,0,0)" fill-opacity="0.501961"/>
<polygon points="323,94 320,93 321,85 324,86" id="181" fill="rgb(255,255,255)" fill-opacity="0.501961"/>
<polygon points="92,54 93,56 66,57 65,55" id="182" fill="rgb(255,255,255)" fill-opacity="0.501961"/>
<polygon points="314,149 312,150 311,63 313,62" id="183" fill="rgb(255,255,255)" fill-opacity="0.501961"/>
<polygon points="236,74 228,71 229,68 237,71" id="184" fill="rgb(255,255,255)" fill-opacity="0.501961"/>
<polygon points="325,74 324,78 320,77 321,73" id="185" fill="rgb(255,255,255)" fill-opacity="0.501961"/>
<polygon points="137,104 104,105 103,103 136,102" id="186" fill="rgb(255,255,255)" fill-opacity="0.501961"/>
<polygon points="25,93 24,61 56,60 57,92" id="187" fill="rgb(255,255,255)" fill-opacity="0.501961"/>
<polygon points="15,101 143,100 143,100 15,101" id="188" fill="rgb(0,0,0)" fill-opacity="0.501961"/>
<polygon points="99,138 100,137 102,142 101,142" id="189" fill="rgb(0,0,0)" fill-opacity="0.501961"/>
<polygon points="104,102 140,103 139,105 103,104" id="190" fill="rgb(255,255,255)" fill-opacity="0.501961"/>
<polygon points="285,81 285,82 276,81 277,80" id="191" fill="rgb(0,0,0)" fill-opacity="0.501961"/>
<polygon points="0,145 56,144 57,159 0,160" id="192" fill="rgb(255,255,255)" fill-opacity="0.501961"/>
<polygon points="246,71 250,69 254,76 250,78" id="193" fill="rgb(255,255,255)" fill-opacity="0.501961"/>
<polygon points="246,83 247,98 245,99 244,84" id="194" fill="rgb(255,255,255)" fill-opacity="0.501961"/>
<polygon points="167,78 174,73 177,77 170,82" id="195" fill="rgb(255,255,255)" fill-opacity="0.501961"/>
<polygon points="194,92 193,90 205,89 206,91" id="196" fill="rgb(0,0,0)" fill-opacity="0.501961"/>
<polygon points="425,139 391,140 390,0 424,0" id="197" fill="rgb(255,255,255)" fill-opacity="0.501961"/>
<polygon points="388,82 378,81 379,79 389,80" id="198" fill="rgb(0,0,0)" fill-opacity="0.501961"/>
<polygon points="223,88 215,86 219,74 227,77" id="199" fill="rgb(255,255,255)" fill-opacity="0.501961"/>
<polygon points="0,0 15,0 15,111 0,111" id="200" fill="rgb(255,255,255)" fill-opacity="0.501961"/>
<polygon points="96,140 61,141 60,139 95,138" id="201" fill="rgb(255,255,255)" fill-opacity="0.501961"/>
<polygon points="368,73 350,92 349,90 367,71" id="202" fill="rgb(0,0,0)" fill-opacity="0.501961"/>
<polygon points="256,71 258,71 253,86 251,86" id="203" fill="rgb(0,0,0)" fill-opacity="0.501961"/>
<polygon points="22,106 53,106 53,137 22,137" id="204" fill="rgb(0,0,0)" fill-opacity="0.501961"/>
<polygon points="257,88 260,122 252,123 249,89" id="205" fill="rgb(255,255,255)" fill-opacity="0.501961"/>
<polygon points="153,79 180,103 171,113 144,89" id="206" fill="rgb(255,255,255)" fill-opacity="0.501961"/>
<polygon points="19,143 19,143 40,142 40,142" id="207" fill="rgb(0,0,0)" fill-opacity="0.501961"/>
<polygon points="99,104 65,105 64,103 98,102" id="208" fill="rgb(255,255,255)" fill-opacity="0.501961"/>
<polygon points="196,83 210,86 209,89 195,86" id="209" fill="rgb(255,255,255)" fill-opacity="0.501961"/>
<polygon points="343,71 344,85 340,86 339,72" id="210" fill="rgb(0,0,0)" fill-opacity="0.501961"/>
<polygon points="215,86 211,85 212,74 216,75" id="211" fill="rgb(0,0,0)" fill-opacity="0.501961"/>
<polygon points="424,159 145,160 144,94 423,93" id="212" fill="rgb(255,255,255)" fill-opacity="0.501961"/>
<polygon points="104,54 107,18 141,21 138,57" id="213" fill="rgb(255,255,255)" fill-opacity="0.501961"/>
<polygon points="64,106 95,106 95,137 64,137" id="214" fill="rgb(0,0,0)" fill-opacity="0.501961"/>
<polygon points="95,101 95,101 52,100 52,100" id="215" fill="rgb(0,0,0)" fill-opacity="0.501961"/>
<polygon points="8,0 143,0 143,15 8,15" id="216" fill="rgb(255,255,255)" fill-opacity="0.501961"/>
<polygon points="24,102 57,102 57,105 24,105" id="217" fill="rgb(255,255,255)" fill-opacity="0.501961"/>
<polygon points="144,7 191,6 192,69 145,70" id="218" fill="rgb(255,255,255)" fill-opacity="0.501961"/>
<polygon points="100,21 100,21 101,47 101,47" id="219" fill="rgb(0,0,0)" fill-opacity="0.501961"/>
<polygon points="358,88 357,88 369,75 370,76" id="220" fill="rgb(255,255,255)" fill-opacity="0.501961"/>
<polygon points="195,103 210,87 245,119 230,135" id="221" fill="rgb(255,255,255)" fill-opacity="0.501961"/>
<polygon points="18,60 57,60 57,99 18,99" id="222" fill="rgb(255,255,255)" fill-opacity="0.501961"/>
<polygon points="350,92 349,90 367,89 368,91" id="223" fill="rgb(0,0,0)" fill-opacity="0.501961"/>
<polygon points="185,65 188,66 185,118 182,117" id="224" fill="rgb(255,255,255)" fill-opacity="0.501961"/>
<polygon points="16,143 141,142 141,142 16,143" id="225" fill="rgb(0,0,0)" fill-opacity="0.501961"/>
<polygon points="118,61 124,60 125,62 119,63" id="226" fill="rgb(255,255,255)" fill-opacity="0.501961"/>
<polygon points="170,87 171,83 177,84 176,88" id="227" fill="rgb(255,255,255)" fill-opacity="0.501961"/>
<polygon points="138,60 141,60 141,99 138,99" id="228" fill="rgb(255,255,255)" fill-opacity="0.501961"/>
<polygon points="357,71 356,73 349,72 350,70" id="229" fill="rgb(0,0,0)" fill-opacity="0.501961"/>
<polygon points="60,60 98,60 98,99 60,99" id="230" fill="rgb(255,255,255)" fill-opacity="0.501961"/>
<polygon points="371,61 374,62 371,109 368,108" id="231" fill="rgb(255,255,255)" fill-opacity="0.501961"/>
<polygon points="269,91 264,92 263,48 268,47" id="232" fill="rgb(255,255,255)" fill-opacity="0.501961"/>
<polygon points="141,62 106,63 105,61 140,60" id="233" fill="rgb(255,255,255)" fill-opacity="0.501961"/>
<polygon points="324,80 320,79 321,74 325,75" id="234" fill="rgb(255,255,255)" fill-opacity="0.501961"/>
<polygon points="133,17 17,16 17,16 133,17" id="235" fill="rgb(0,0,0)" fill-opacity="0.501961"/>
<polygon points="327,72 331,73 328,86 324,85" id="236" fill="rgb(0,0,0)" fill-opacity="0.501961"/>
<polygon points="141,140 139,141 138,104 140,103" id="237" fill="rgb(255,255,255)" fill-opacity="0.501961"/>
<polygon points="155,59 167,70 158,80 146,68" id="238" fill="rgb(255,255,255)" fill-opacity="0.501961"/>
<polygon points="297,73 301,72 302,91 298,92" id="239" fill="rgb(0,0,0)" fill-opacity="0.501961"/>
<polygon points="98,102 99,134 97,135 96,103" id="240" fill="rgb(255,255,255)" fill-opacity="0.501961"/>
<polygon points="0,145 142,144 143,159 0,160" id="241" fill="rgb(255,255,255)" fill-opacity="0.501961"/>
<polygon points="18,138 57,138 57,141 18,141" id="242" fill="rgb(255,255,255)" fill-opacity="0.501961"/>
<polygon points="336,77 325,68 327,65 338,74" id="243" fill="rgb(255,255,255)" fill-opacity="0.501961"/>
<polygon points="102,60 105,60 105,96 102,96" id="244" fill="rgb(255,255,255)" fill-opacity="0.501961"/>
<polygon points="16,125 16,125 17,143 17,143" id="245" fill="rgb(0,0,0)" fill-opacity="0.501961"/>
<polygon points="102,141 205,140 205,140 102,141" id="246" fill="rgb(255,255,255)" fill-opacity="0.501961"/>
<polygon points="337,73 338,75 330,84 328,83" id="247" fill="rgb(255,255,255)" fill-opacity="0.501961"/>
<polygon points="218,90 216,92 210,79 212,78" id="248" fill="rgb(0,0,0)" fill-opacity="0.501961"/>
<polygon points="296,77 278,78 277,75 295,74" id="249" fill="rgb(255,255,255)" fill-opacity="0.501961"/>
<polygon points="107,106 137,106 137,137 107,137" id="250" fill="rgb(0,0,0)" fill-opacity="0.501961"/>
<polygon points="329,83 332,90 328,92 325,85" id="251" fill="rgb(0,0,0)" fill-opacity="0.501961"/>
<polygon points="241,96 217,117 210,109 233,87" id="252" fill="rgb(255,255,255)" fill-opacity="0.501961"/>
<polygon points="142,58 143,100 143,100 142,58" id="253" fill="rgb(0,0,0)" fill-opacity="0.501961"/>
<polygon points="86,55 85,57 62,56 63,54" id="254" fill="rgb(255,255,255)" fill-opacity="0.501961"/>
<polygon points="338,79 339,107 335,108 334,80" id="255" fill="rgb(255,255,255)" fill-opacity="0.501961"/>
<polygon points="144,72 161,71 162,118 145,119" id="256" fill="rgb(255,255,255)" fill-opacity="0.501961"/>
<polygon points="183,82 182,90 179,89 180,81" id="257" fill="rgb(0,0,0)" fill-opacity="0.501961"/>
<polygon points="208,74 209,77 197,78 196,75" id="258" fill="rgb(255,255,255)" fill-opacity="0.501961"/>
<polygon points="315,78 317,70 320,71 318,79" id="259" fill="rgb(0,0,0)" fill-opacity="0.501961"/>
<polygon points="250,89 247,84 250,82 253,87" id="260" fill="rgb(0,0,0)" fill-opacity="0.501961"/>
<polygon points="391,90 390,92 375,91 376,89" id="261" fill="rgb(0,0,0)" fill-opacity="0.501961"/>
<polygon points="143,105 142,120 142,120 143,105" id="262" fill="rgb(0,0,0)" fill-opacity="0.501961"/>
<polygon points="257,78 256,141 256,141 257,78" id="263" fill="rgb(255,255,255)" fill-opacity="0.501961"/>
<polygon points="390,72 389,73 388,70 389,70" id="264" fill="rgb(0,0,0)" fill-opacity="0.501961"/>
<polygon points="208,89 204,88 207,65 211,66" id="265" fill="rgb(255,255,255)" fill-opacity="0.501961"/>
<polygon points="288,84 287,88 276,87 277,83" id="266" fill="rgb(255,255,255)" fill-opacity="0.501961"/>
<polygon points="19,74 19,74 18,127 18,127" id="267" fill="rgb(255,255,255)" fill-opacity="0.501961"/>
<polygon points="204,80 189,85 189,84 204,79" id="268" fill="rgb(0,0,0)" fill-opacity="0.501961"/>
<polygon points="66,143 66,143 74,142 74,142" id="269" fill="rgb(0,0,0)" fill-opacity="0.501961"/>
<polygon points="140,99 104,98 105,96 141,97" id="270" fill="rgb(255,255,255)" fill-opacity="0.501961"/>
<polygon points="94,105 70,104 71,102 95,103" id="271" fill="rgb(255,255,255)" fill-opacity="0.501961"/>
<polygon points="382,89 383,91 376,93 375,91" id="272" fill="rgb(0,0,0)" fill-opacity="0.501961"/>
<polygon points="181,91 170,92 169,90 180,89" id="273" fill="rgb(0,0,0)" fill-opacity="0.501961"/>
<polygon points="384,77 385,74 404,77 403,80" id="274" fill="rgb(255,255,255)" fill-opacity="0.501961"/>
<polygon points="238,83 241,82 243,91 240,92" id="275" fill="rgb(0,0,0)" fill-opacity="0.501961"/>
<polygon points="51,101 51,101 42,100 42,100" id="276" fill="rgb(0,0,0)" fill-opacity="0.501961"/>
<polygon points="243,103 241,108 205,94 207,88" id="277" fill="rgb(255,255,255)" fill-opacity="0.501961"/>
<polygon points="100,141 101,124 101,124 100,141" id="278" fill="rgb(0,0,0)" fill-opacity="0.501961"/>
<polygon points="244,56 247,55 252,79 249,79" id="279" fill="rgb(255,255,255)" fill-opacity="0.501961"/>
<polygon points="321,85 327,91 326,92 320,85" id="280" fill="rgb(255,255,255)" fill-opacity="0.501961"/>
<polygon points="227,79 224,88 218,86 221,77" id="281" fill="rgb(255,255,255)" fill-opacity="0.501961"/>
<polygon points="251,88 249,88 244,73 246,73" id="282" fill="rgb(0,0,0)" fill-opacity="0.501961"/>
<polygon points="170,71 170,70 182,73 181,74" id="283" fill="rgb(0,0,0)" fill-opacity="0.501961"/>
<polygon points="144,0 416,0 416,69 144,69" id="284" fill="rgb(255,255,255)" fill-opacity="0.501961"/>
<polygon points="284,92 271,91 272,89 285,90" id="285" fill="rgb(0,0,0)" fill-opacity="0.501961"/>
<polygon points="359,75 351,76 350,75 359,74" id="286" fill="rgb(255,255,255)" fill-opacity="0.501961"/>
<polygon points="315,82 314,74 318,73 319,81" id="287" fill="rgb(0,0,0)" fill-opacity="0.501961"/>
<polygon points="184,77 188,76 189,111 185,112" id="288" fill="rgb(255,255,255)" fill-opacity="0.501961"/>
<polygon points="183,77 182,79 175,76 176,74" id="289" fill="rgb(255,255,255)" fill-opacity="0.501961"/>
<polygon points="18,100 143,100 143,101 18,101" id="290" fill="rgb(0,0,0)" fill-opacity="0.501961"/>
<polygon points="63,123 61,124 60,107 62,106" id="291" fill="rgb(255,255,255)" fill-opacity="0.501961"/>
<polygon points="18,19 56,18 57,56 19,57" id="292" fill="rgb(255,255,255)" fill-opacity="0.501961"/>
<polygon points="349,73 349,73 359,70 359,70" id="293" fill="rgb(0,0,0)" fill-opacity="0.501961"/>
<polygon points="0,144 144,144 144,160 0,160" id="294" fill="rgb(255,255,255)" fill-opacity="0.501961"/>
<polygon points="100,122 101,144 101,144 100,122" id="295" fill="rgb(0,0,0)" fill-opacity="0.501961"/>
<polygon points="62,18 63,45 61,46 60,19" id="296" fill="rgb(255,255,255)" fill-opacity="0.501961"/>
<polygon points="237,69 247,75 247,75 237,69" id="297" fill="rgb(0,0,0)" fill-opacity="0.501961"/>
<polygon points="226,88 229,81 233,83 230,90" id="298" fill="rgb(0,0,0)" fill-opacity="0.501961"/>
<polygon points="99,82 100,63 101,63 100,83" id="299" fill="rgb(0,0,0)" fill-opacity="0.501961"/>
<polygon points="251,80 249,79 253,69 255,69" id="300" fill="rgb(255,255,255)" fill-opacity="0.501961"/>
</svg>