<?xml version="1.0" standalone="no"?>
<svg xmlns="http://www.w3.org/2000/svg" version="1.2" baseProfile="tiny" width="768" height="512">
<rect id="background" x="0" y="0" width="768" height="512" fill="rgb(74,77,66)" fill-opacity="1"/>
<polygon points="382,191 463,512 323,512" id="0" fill="rgb(0,20,207)" fill-opacity="0.501961" />
<polygon points="406,246 372,212 371,439" id="1" fill="rgb(0,108,255)" fill-opacity="0.501961" />
<polygon points="307,150 338,184 470,97" id="2" fill="rgb(152,178,162)" fill-opacity="0.501961" />
<polygon points="337,53 406,41 381,101" id="3" fill="rgb(185,212,175)" fill-opacity="0.501961" />
<polygon points="225,137 224,105 266,104" id="4" fill="rgb(214,235,159)" fill-opacity="0.501961" />
<polygon points="489,181 546,152 502,128" id="5" fill="rgb(162,192,161)" fill-opacity="0.501961" />
<polygon points="334,208 303,248 294,223" id="6" fill="rgb(222,241,182)" fill-opacity="0.501961" />
<polygon points="516,35 538,55 481,54" id="7" fill="rgb(246,217,158)" fill-opacity="0.501961" />
<polygon points="253,5 310,2 296,50" id="8" fill="rgb(162,178,158)" fill-opacity="0.501961" />
<polygon points="66,491 284,502 362,356" id="9" fill="rgb(101,145,111)" fill-opacity="0.501961" />
<polygon points="474,500 406,312 722,512" id="10" fill="rgb(92,138,105)" fill-opacity="0.501961" />
<polygon points="133,141 85,121 151,83" id="11" fill="rgb(154,160,135)" fill-opacity="0.501961" />
<polygon points="421,214 468,224 446,200" id="12" fill="rgb(246,232,182)" fill-opacity="0.501961" />
<polygon points="741,265 761,287 718,303" id="13" fill="rgb(206,224,171)" fill-opacity="0.501961" />
<polygon points="1,29 233,249 0,294" id="14" fill="rgb(60,35,10)" fill-opacity="0.501961" />
<polygon points="298,291 343,410 365,256" id="15" fill="rgb(173,169,75)" fill-opacity="0.501961" />
<polygon points="77,223 96,173 147,204" id="16" fill="rgb(146,164,136)" fill-opacity="0.501961" />
<polygon points="720,448 596,410 738,413" id="17" fill="rgb(121,158,140)" fill-opacity="0.501961" />
<polygon points="384,201 367,145 397,144" id="18" fill="rgb(81,131,255)" fill-opacity="0.501961" />
<polygon points="626,108 652,143 664,115" id="19" fill="rgb(231,221,152)" fill-opacity="0.501961" />
<polygon points="472,309 396,221 437,406" id="20" fill="rgb(163,158,70)" fill-opacity="0.501961" />
<polygon points="415,158 415,102 470,118" id="21" fill="rgb(165,189,156)" fill-opacity="0.501961" />
<polygon points="4,319 173,440 220,285" id="22" fill="rgb(53,36,18)" fill-opacity="0.501961" />
<polygon points="620,42 646,21 604,14" id="23" fill="rgb(240,212,150)" fill-opacity="0.501961" />
<polygon points="349,389 502,512 288,512" id="24" fill="rgb(0,25,81)" fill-opacity="0.501961" />
<polygon points="0,29 79,39 58,1" id="25" fill="rgb(153,158,157)" fill-opacity="0.501961" />
<polygon points="620,230 630,193 653,211" id="26" fill="rgb(213,209,179)" fill-opacity="0.501961" />
<polygon points="191,33 192,0 126,0" id="27" fill="rgb(137,165,173)" fill-opacity="0.501961" />
<polygon points="768,63 641,0 627,98" id="28" fill="rgb(54,21,7)" fill-opacity="0.501961" />
<polygon points="493,220 522,223 519,248" id="29" fill="rgb(248,213,163)" fill-opacity="0.501961" />
<polygon points="0,110 0,151 23,129" id="30" fill="rgb(142,190,184)" fill-opacity="0.501961" />
<polygon points="756,15 731,26 726,-13" id="31" fill="rgb(245,194,141)" fill-opacity="0.501961" />
<polygon points="518,0 637,74 553,215" id="32" fill="rgb(63,42,14)" fill-opacity="0.501961" />
<polygon points="668,369 635,366 671,334" id="33" fill="rgb(187,207,142)" fill-opacity="0.501961" />
<polygon points="565,394 589,399 598,363" id="34" fill="rgb(205,224,140)" fill-opacity="0.501961" />
<polygon points="170,329 131,355 86,271" id="35" fill="rgb(129,129,77)" fill-opacity="0.501961" />
<polygon points="768,114 768,133 672,181" id="36" fill="rgb(110,153,171)" fill-opacity="0.501961" />
<polygon points="26,343 80,368 22,391" id="37" fill="rgb(155,151,111)" fill-opacity="0.501961" />
<polygon points="580,124 457,122 444,54" id="38" fill="rgb(59,31,11)" fill-opacity="0.501961" />
<polygon points="182,0 421,167 398,103" id="39" fill="rgb(73,51,20)" fill-opacity="0.501961" />
<polygon points="194,205 227,193 205,227" id="40" fill="rgb(212,203,133)" fill-opacity="0.501961" />
<polygon points="223,137 273,100 262,141" id="41" fill="rgb(118,170,162)" fill-opacity="0.501961" />
<polygon points="547,312 515,337 539,345" id="42" fill="rgb(180,210,153)" fill-opacity="0.501961" />
<polygon points="509,284 591,242 608,293" id="43" fill="rgb(108,133,115)" fill-opacity="0.501961" />
<polygon points="484,50 492,86 551,58" id="44" fill="rgb(109,154,132)" fill-opacity="0.501961" />
<polygon points="269,307 266,347 245,329" id="45" fill="rgb(200,185,115)" fill-opacity="0.501961" />
<polygon points="199,276 224,245 223,286" id="46" fill="rgb(198,186,114)" fill-opacity="0.501961" />
<polygon points="362,145 324,141 312,172" id="47" fill="rgb(214,231,160)" fill-opacity="0.501961" />
<polygon points="63,381 191,367 0,457" id="48" fill="rgb(36,14,9)" fill-opacity="0.501961" />
<polygon points="677,123 747,75 768,65" id="49" fill="rgb(255,240,255)" fill-opacity="0.501961" />
<polygon points="512,149 555,216 469,224" id="50" fill="rgb(41,44,29)" fill-opacity="0.501961" />
<polygon points="768,454 768,509 670,493" id="51" fill="rgb(100,116,130)" fill-opacity="0.501961" />
<polygon points="251,0 331,124 0,60" id="52" fill="rgb(82,52,19)" fill-opacity="0.501961" />
<polygon points="85,120 125,87 106,142" id="53" fill="rgb(181,168,97)" fill-opacity="0.501961" />
<polygon points="64,418 81,460 171,393" id="54" fill="rgb(127,129,98)" fill-opacity="0.501961" />
<polygon points="718,222 767,223 765,190" id="55" fill="rgb(92,148,168)" fill-opacity="0.501961" />
<polygon points="440,239 392,202 420,161" id="56" fill="rgb(129,152,118)" fill-opacity="0.501961" />
<polygon points="408,241 372,209 360,158" id="57" fill="rgb(0,4,40)" fill-opacity="0.501961" />
<polygon points="750,154 768,193 641,214" id="58" fill="rgb(42,21,20)" fill-opacity="0.501961" />
<polygon points="384,202 391,173 370,176" id="59" fill="rgb(249,175,177)" fill-opacity="0.501961" />
<polygon points="256,300 248,377 30,188" id="60" fill="rgb(50,49,28)" fill-opacity="0.501961" />
<polygon points="223,200 83,177 205,68" id="61" fill="rgb(74,48,28)" fill-opacity="0.501961" />
<polygon points="201,357 210,399 185,392" id="62" fill="rgb(187,161,77)" fill-opacity="0.501961" />
<polygon points="456,417 483,458 525,314" id="63" fill="rgb(16,78,72)" fill-opacity="0.501961" />
<polygon points="382,28 467,-5 582,41" id="64" fill="rgb(72,42,13)" fill-opacity="0.501961" />
<polygon points="11,285 144,0 78,0" id="65" fill="rgb(72,40,22)" fill-opacity="0.501961" />
<polygon points="575,39 603,13 599,58" id="66" fill="rgb(108,177,151)" fill-opacity="0.501961" />
<polygon points="615,132 624,113 635,133" id="67" fill="rgb(0,102,255)" fill-opacity="0.501961" />
<polygon points="354,199 369,224 370,198" id="68" fill="rgb(223,249,174)" fill-opacity="0.501961" />
<polygon points="374,196 362,358 345,410" id="69" fill="rgb(0,0,35)" fill-opacity="0.501961" />
<polygon points="497,412 516,395 481,400" id="70" fill="rgb(204,203,169)" fill-opacity="0.501961" />
<polygon points="491,151 468,211 407,149" id="71" fill="rgb(47,42,10)" fill-opacity="0.501961" />
<polygon points="633,286 556,301 497,438" id="72" fill="rgb(37,45,38)" fill-opacity="0.501961" />
<polygon points="331,203 343,252 321,243" id="73" fill="rgb(111,174,156)" fill-opacity="0.501961" />
<polygon points="273,411 265,408 182,455" id="74" fill="rgb(224,203,233)" fill-opacity="0.501961" />
<polygon points="349,75 373,41 399,54" id="75" fill="rgb(224,225,163)" fill-opacity="0.501961" />
<polygon points="377,84 362,68 393,63" id="76" fill="rgb(0,42,200)" fill-opacity="0.501961" />
<polygon points="0,336 33,297 0,285" id="77" fill="rgb(133,147,122)" fill-opacity="0.501961" />
<polygon points="716,72 648,125 768,37" id="78" fill="rgb(210,178,206)" fill-opacity="0.501961" />
<polygon points="274,23 305,9 283,40" id="79" fill="rgb(0,33,161)" fill-opacity="0.501961" />
<polygon points="0,322 31,404 -7,412" id="80" fill="rgb(50,16,5)" fill-opacity="0.501961" />
<polygon points="725,265 712,278 730,288" id="81" fill="rgb(0,101,255)" fill-opacity="0.501961" />
<polygon points="278,401 298,403 282,365" id="82" fill="rgb(194,185,132)" fill-opacity="0.501961" />
<polygon points="261,4 260,43 297,0" id="83" fill="rgb(189,184,100)" fill-opacity="0.501961" />
<polygon points="583,421 735,478 496,383" id="84" fill="rgb(177,173,190)" fill-opacity="0.501961" />
<polygon points="690,435 584,397 705,430" id="85" fill="rgb(30,37,20)" fill-opacity="0.501961" />
<polygon points="262,187 279,135 196,156" id="86" fill="rgb(41,29,9)" fill-opacity="0.501961" />
<polygon points="452,348 549,231 459,387" id="87" fill="rgb(45,58,21)" fill-opacity="0.501961" />
<polygon points="270,501 326,454 262,454" id="88" fill="rgb(140,160,121)" fill-opacity="0.501961" />
<polygon points="95,260 171,277 87,304" id="89" fill="rgb(120,130,96)" fill-opacity="0.501961" />
<polygon points="602,205 620,199 614,218" id="90" fill="rgb(0,131,255)" fill-opacity="0.501961" />
<polygon points="609,187 651,159 579,132" id="91" fill="rgb(42,22,17)" fill-opacity="0.501961" />
<polygon points="662,371 660,417 768,383" id="92" fill="rgb(43,36,31)" fill-opacity="0.501961" />
<polygon points="584,512 484,506 467,466" id="93" fill="rgb(149,124,80)" fill-opacity="0.501961" />
<polygon points="463,488 339,446 403,297" id="94" fill="rgb(0,48,154)" fill-opacity="0.501961" />
<polygon points="484,273 502,285 487,304" id="95" fill="rgb(216,190,133)" fill-opacity="0.501961" />
<polygon points="405,398 391,205 367,245" id="96" fill="rgb(6,102,236)" fill-opacity="0.501961" />
<polygon points="710,7 705,22 726,24" id="97" fill="rgb(0,81,255)" fill-opacity="0.501961" />
<polygon points="740,458 754,484 464,365" id="98" fill="rgb(29,43,34)" fill-opacity="0.501961" />
<polygon points="103,211 120,206 118,187" id="99" fill="rgb(0,67,252)" fill-opacity="0.501961" />
<polygon points="134,104 39,48 210,168" id="100" fill="rgb(154,144,124)" fill-opacity="0.501961" />
<polygon points="56,10 59,33 35,33" id="101" fill="rgb(0,4,172)" fill-opacity="0.501961" />
<polygon points="0,343 103,352 143,295" id="102" fill="rgb(47,24,20)" fill-opacity="0.501961" />
<polygon points="430,143 444,126 418,126" id="103" fill="rgb(0,52,207)" fill-opacity="0.501961" />
<polygon points="292,0 376,0 336,113" id="104" fill="rgb(110,74,34)" fill-opacity="0.501961" />
<polygon points="594,42 615,42 597,24" id="105" fill="rgb(0,63,255)" fill-opacity="0.501961" />
<polygon points="162,414 183,404 114,425" id="106" fill="rgb(240,217,244)" fill-opacity="0.501961" />
<polygon points="753,138 768,146 762,124" id="107" fill="rgb(0,102,255)" fill-opacity="0.501961" />
<polygon points="192,23 174,29 193,5" id="108" fill="rgb(185,255,164)" fill-opacity="0.501961" />
<polygon points="137,119 124,103 112,132" id="109" fill="rgb(0,38,203)" fill-opacity="0.501961" />
<polygon points="48,253 7,359 105,267" id="110" fill="rgb(51,29,15)" fill-opacity="0.501961" />
<polygon points="768,445 693,432 733,420" id="111" fill="rgb(155,161,128)" fill-opacity="0.501961" />
<polygon points="464,0 704,0 689,23" id="112" fill="rgb(72,44,7)" fill-opacity="0.501961" />
<polygon points="16,143 103,238 0,211" id="113" fill="rgb(30,18,11)" fill-opacity="0.501961" />
<polygon points="100,512 0,511 218,485" id="114" fill="rgb(141,103,30)" fill-opacity="0.501961" />
<polygon points="469,226 523,285 426,244" id="115" fill="rgb(26,42,22)" fill-opacity="0.501961" />
<polygon points="183,20 183,-8 161,19" id="116" fill="rgb(0,20,190)" fill-opacity="0.501961" />
<polygon points="291,481 317,512 287,512" id="117" fill="rgb(0,0,0)" fill-opacity="0.501961" />
<polygon points="458,276 455,257 399,236" id="118" fill="rgb(172,163,106)" fill-opacity="0.501961" />
<polygon points="248,378 283,382 68,459" id="119" fill="rgb(25,34,18)" fill-opacity="0.501961" />
<polygon points="326,407 291,358 317,356" id="120" fill="rgb(39,39,0)" fill-opacity="0.501961" />
<polygon points="0,37 0,0 38,-3" id="121" fill="rgb(52,15,0)" fill-opacity="0.501961" />
<polygon points="344,512 392,468 494,512" id="122" fill="rgb(0,17,63)" fill-opacity="0.501961" />
<polygon points="473,247 583,127 486,250" id="123" fill="rgb(121,135,117)" fill-opacity="0.501961" />
<polygon points="39,360 48,379 56,363" id="124" fill="rgb(0,87,241)" fill-opacity="0.501961" />
<polygon points="508,143 533,136 535,170" id="125" fill="rgb(228,184,131)" fill-opacity="0.501961" />
<polygon points="156,323 145,342 141,320" id="126" fill="rgb(0,80,227)" fill-opacity="0.501961" />
<polygon points="593,181 505,256 657,142" id="127" fill="rgb(146,131,127)" fill-opacity="0.501961" />
<polygon points="309,282 269,249 372,246" id="128" fill="rgb(24,37,22)" fill-opacity="0.501961" />
<polygon points="79,243 0,230 0,226" id="129" fill="rgb(168,155,157)" fill-opacity="0.501961" />
<polygon points="580,368 571,379 511,369" id="130" fill="rgb(85,155,167)" fill-opacity="0.501961" />
<polygon points="279,407 187,473 342,385" id="131" fill="rgb(15,64,48)" fill-opacity="0.501961" />
<polygon points="382,0 395,80 365,0" id="132" fill="rgb(170,148,120)" fill-opacity="0.501961" />
<polygon points="106,474 218,423 167,448" id="133" fill="rgb(247,227,255)" fill-opacity="0.501961" />
<polygon points="530,430 600,474 516,417" id="134" fill="rgb(208,220,243)" fill-opacity="0.501961" />
<polygon points="170,0 143,0 153,31" id="135" fill="rgb(199,200,113)" fill-opacity="0.501961" />
<polygon points="644,342 561,343 663,334" id="136" fill="rgb(109,159,185)" fill-opacity="0.501961" />
<polygon points="468,223 429,239 493,177" id="137" fill="rgb(139,155,114)" fill-opacity="0.501961" />
<polygon points="496,51 521,63 497,72" id="138" fill="rgb(0,39,200)" fill-opacity="0.501961" />
<polygon points="503,148 521,168 502,166" id="139" fill="rgb(0,95,255)" fill-opacity="0.501961" />
<polygon points="126,279 112,295 111,271" id="140" fill="rgb(0,63,224)" fill-opacity="0.501961" />
<polygon points="194,191 202,193 134,150" id="141" fill="rgb(193,168,174)" fill-opacity="0.501961" />
<polygon points="413,337 384,165 438,436" id="142" fill="rgb(1,8,53)" fill-opacity="0.501961" />
<polygon points="433,0 439,0 432,79" id="143" fill="rgb(173,176,150)" fill-opacity="0.501961" />
<polygon points="606,135 619,139 615,113" id="144" fill="rgb(175,233,122)" fill-opacity="0.501961" />
<polygon points="230,255 226,278 239,265" id="145" fill="rgb(0,108,255)" fill-opacity="0.501961" />
<polygon points="591,261 582,297 605,279" id="146" fill="rgb(219,173,130)" fill-opacity="0.501961" />
<polygon points="403,117 444,104 448,123" id="147" fill="rgb(241,198,160)" fill-opacity="0.501961" />
<polygon points="751,211 775,222 764,196" id="148" fill="rgb(0,82,255)" fill-opacity="0.501961" />
<polygon points="233,214 218,219 230,194" id="149" fill="rgb(0,86,255)" fill-opacity="0.501961" />
<polygon points="646,284 626,304 674,297" id="150" fill="rgb(152,126,154)" fill-opacity="0.501961" />
<polygon points="620,416 597,407 701,442" id="151" fill="rgb(248,226,255)" fill-opacity="0.501961" />
<polygon points="494,339 498,359 481,367" id="152" fill="rgb(215,194,131)" fill-opacity="0.501961" />
<polygon points="206,105 101,0 230,134" id="153" fill="rgb(181,151,136)" fill-opacity="0.501961" />
<polygon points="768,466 768,461 733,452" id="154" fill="rgb(255,220,255)" fill-opacity="0.501961" />
<polygon points="207,0 268,92 300,147" id="155" fill="rgb(216,189,192)" fill-opacity="0.501961" />
<polygon points="699,26 696,12 708,3" id="156" fill="rgb(180,255,156)" fill-opacity="0.501961" />
<polygon points="32,453 86,438 0,458" id="157" fill="rgb(224,203,196)" fill-opacity="0.501961" />
<polygon points="291,498 189,528 178,501" id="158" fill="rgb(156,87,46)" fill-opacity="0.501961" />
<polygon points="429,93 377,30 511,36" id="159" fill="rgb(105,75,41)" fill-opacity="0.501961" />
<polygon points="327,165 345,174 351,155" id="160" fill="rgb(0,38,203)" fill-opacity="0.501961" />
<polygon points="584,264 566,274 579,287" id="161" fill="rgb(0,67,214)" fill-opacity="0.501961" />
<polygon points="49,8 26,46 15,13" id="162" fill="rgb(191,178,108)" fill-opacity="0.501961" />
<polygon points="12,133 0,137 183,214" id="163" fill="rgb(131,111,92)" fill-opacity="0.501961" />
<polygon points="355,182 391,86 363,99" id="164" fill="rgb(56,54,32)" fill-opacity="0.501961" />
<polygon points="166,426 55,466 160,431" id="165" fill="rgb(195,183,195)" fill-opacity="0.501961" />
<polygon points="57,419 75,418 0,430" id="166" fill="rgb(232,189,213)" fill-opacity="0.501961" />
<polygon points="507,22 679,81 696,133" id="167" fill="rgb(55,35,22)" fill-opacity="0.501961" />
<polygon points="56,500 31,491 37,512" id="168" fill="rgb(204,171,80)" fill-opacity="0.501961" />
<polygon points="29,355 53,388 7,385" id="169" fill="rgb(164,150,81)" fill-opacity="0.501961" />
<polygon points="300,328 288,341 299,360" id="170" fill="rgb(211,183,113)" fill-opacity="0.501961" />
<polygon points="254,112 237,132 259,132" id="171" fill="rgb(0,25,190)" fill-opacity="0.501961" />
<polygon points="374,342 309,512 349,512" id="172" fill="rgb(0,40,142)" fill-opacity="0.501961" />
<polygon points="388,178 364,149 391,141" id="173" fill="rgb(0,69,182)" fill-opacity="0.501961" />
<polygon points="543,151 502,175 541,169" id="174" fill="rgb(137,170,66)" fill-opacity="0.501961" />
<polygon points="216,92 215,96 180,53" id="175" fill="rgb(213,180,196)" fill-opacity="0.501961" />
<polygon points="490,244 494,229 508,245" id="176" fill="rgb(0,113,253)" fill-opacity="0.501961" />
<polygon points="220,461 235,455 279,421" id="177" fill="rgb(208,219,249)" fill-opacity="0.501961" />
<polygon points="242,208 236,220 236,196" id="178" fill="rgb(208,255,159)" fill-opacity="0.501961" />
<polygon points="9,312 6,293 20,300" id="179" fill="rgb(0,94,255)" fill-opacity="0.501961" />
<polygon points="717,414 695,417 707,430" id="180" fill="rgb(0,75,223)" fill-opacity="0.501961" />
<polygon points="312,65 303,51 342,149" id="181" fill="rgb(192,170,169)" fill-opacity="0.501961" />
<polygon points="747,226 776,251 659,270" id="182" fill="rgb(48,27,36)" fill-opacity="0.501961" />
<polygon points="451,455 503,456 525,500" id="183" fill="rgb(112,150,134)" fill-opacity="0.501961" />
<polygon points="762,377 668,368 726,377" id="184" fill="rgb(178,162,190)" fill-opacity="0.501961" />
<polygon points="100,189 71,209 106,223" id="185" fill="rgb(170,164,99)" fill-opacity="0.501961" />
<polygon points="639,153 665,122 622,139" id="186" fill="rgb(134,177,82)" fill-opacity="0.501961" />
<polygon points="768,493 709,469 768,494" id="187" fill="rgb(255,232,255)" fill-opacity="0.501961" />
<polygon points="127,472 103,512 125,496" id="188" fill="rgb(220,149,112)" fill-opacity="0.501961" />
<polygon points="9,125 0,121 0,142" id="189" fill="rgb(0,77,255)" fill-opacity="0.501961" />
<polygon points="343,125 314,36 343,130" id="190" fill="rgb(225,203,212)" fill-opacity="0.501961" />
<polygon points="497,383 472,386 514,337" id="191" fill="rgb(16,24,17)" fill-opacity="0.501961" />
<polygon points="511,327 529,312 529,334" id="192" fill="rgb(0,98,191)" fill-opacity="0.501961" />
<polygon points="523,505 479,411 582,469" id="193" fill="rgb(49,110,94)" fill-opacity="0.501961" />
<polygon points="223,0 262,60 324,171" id="194" fill="rgb(162,142,132)" fill-opacity="0.501961" />
<polygon points="172,220 263,226 189,271" id="195" fill="rgb(46,43,20)" fill-opacity="0.501961" />
<polygon points="479,106 531,111 528,65" id="196" fill="rgb(46,21,5)" fill-opacity="0.501961" />
<polygon points="20,486 0,491 9,512" id="197" fill="rgb(205,93,15)" fill-opacity="0.501961" />
<polygon points="510,76 538,65 534,34" id="198" fill="rgb(154,162,56)" fill-opacity="0.501961" />
<polygon points="93,417 94,436 106,428" id="199" fill="rgb(0,90,233)" fill-opacity="0.501961" />
<polygon points="344,409 320,476 266,418" id="200" fill="rgb(50,113,90)" fill-opacity="0.501961" />
<polygon points="156,76 230,28 119,51" id="201" fill="rgb(52,26,11)" fill-opacity="0.501961" />
<polygon points="111,221 173,242 173,245" id="202" fill="rgb(184,161,174)" fill-opacity="0.501961" />
<polygon points="748,103 768,98 658,157" id="203" fill="rgb(146,113,157)" fill-opacity="0.501961" />
<polygon points="746,440 768,459 718,444" id="204" fill="rgb(0,3,2)" fill-opacity="0.501961" />
<polygon points="55,101 169,68 167,103" id="205" fill="rgb(106,82,39)" fill-opacity="0.501961" />
<polygon points="524,229 487,172 549,184" id="206" fill="rgb(38,30,14)" fill-opacity="0.501961" />
<polygon points="230,52 187,0 250,86" id="207" fill="rgb(164,142,130)" fill-opacity="0.501961" />
<polygon points="499,32 475,126 442,212" id="208" fill="rgb(145,142,113)" fill-opacity="0.501961" />
<polygon points="730,298 665,295 693,318" id="209" fill="rgb(32,32,22)" fill-opacity="0.501961" />
<polygon points="445,429 415,330 414,224" id="210" fill="rgb(145,158,90)" fill-opacity="0.501961" />
<polygon points="311,240 330,222 331,238" id="211" fill="rgb(0,71,228)" fill-opacity="0.501961" />
<polygon points="201,198 138,162 125,253" id="212" fill="rgb(47,40,29)" fill-opacity="0.501961" />
<polygon points="69,16 67,34 54,40" id="213" fill="rgb(206,255,152)" fill-opacity="0.501961" />
<polygon points="396,70 388,112 463,97" id="214" fill="rgb(63,46,21)" fill-opacity="0.501961" />
<polygon points="0,275 100,267 0,247" id="215" fill="rgb(20,19,8)" fill-opacity="0.501961" />
<polygon points="389,209 370,219 404,171" id="216" fill="rgb(0,0,5)" fill-opacity="0.501961" />
<polygon points="141,508 174,452 190,500" id="217" fill="rgb(121,145,67)" fill-opacity="0.501961" />
<polygon points="220,434 252,410 122,476" id="218" fill="rgb(36,42,33)" fill-opacity="0.501961" />
<polygon points="635,15 639,40 603,51" id="219" fill="rgb(150,187,87)" fill-opacity="0.501961" />
<polygon points="605,199 597,216 603,217" id="220" fill="rgb(187,255,139)" fill-opacity="0.501961" />
<polygon points="407,201 395,194 395,217" id="221" fill="rgb(183,234,165)" fill-opacity="0.501961" />
<polygon points="709,494 709,512 728,497" id="222" fill="rgb(0,38,184)" fill-opacity="0.501961" />
<polygon points="448,0 424,0 422,14" id="223" fill="rgb(160,222,113)" fill-opacity="0.501961" />
<polygon points="201,482 253,484 284,420" id="224" fill="rgb(31,91,72)" fill-opacity="0.501961" />
<polygon points="236,485 210,486 199,512" id="225" fill="rgb(179,171,121)" fill-opacity="0.501961" />
<polygon points="315,404 234,472 270,444" id="226" fill="rgb(210,223,234)" fill-opacity="0.501961" />
<polygon points="643,216 659,215 517,281" id="227" fill="rgb(139,145,132)" fill-opacity="0.501961" />
<polygon points="740,142 724,104 637,146" id="228" fill="rgb(62,40,47)" fill-opacity="0.501961" />
<polygon points="347,365 335,440 301,289" id="229" fill="rgb(112,109,49)" fill-opacity="0.501961" />
<polygon points="372,185 272,177 303,215" id="230" fill="rgb(43,50,26)" fill-opacity="0.501961" />
<polygon points="104,413 194,397 121,422" id="231" fill="rgb(26,23,13)" fill-opacity="0.501961" />
<polygon points="574,84 679,110 534,126" id="232" fill="rgb(101,91,53)" fill-opacity="0.501961" />
<polygon points="493,313 459,307 461,293" id="233" fill="rgb(0,15,9)" fill-opacity="0.501961" />
<polygon points="479,319 471,333 471,306" id="234" fill="rgb(212,199,126)" fill-opacity="0.501961" />
<polygon points="517,7 566,35 616,10" id="235" fill="rgb(84,57,5)" fill-opacity="0.501961" />
<polygon points="606,493 555,512 603,477" id="236" fill="rgb(176,85,50)" fill-opacity="0.501961" />
<polygon points="635,248 617,336 603,223" id="237" fill="rgb(44,38,34)" fill-opacity="0.501961" />
<polygon points="602,447 691,491 559,422" id="238" fill="rgb(207,211,238)" fill-opacity="0.501961" />
<polygon points="469,283 470,298 503,264" id="239" fill="rgb(122,172,134)" fill-opacity="0.501961" />
<polygon points="326,409 331,408 278,461" id="240" fill="rgb(210,200,221)" fill-opacity="0.501961" />
<polygon points="83,491 96,512 95,480" id="241" fill="rgb(186,43,0)" fill-opacity="0.501961" />
<polygon points="24,450 77,432 60,423" id="242" fill="rgb(22,9,0)" fill-opacity="0.501961" />
<polygon points="270,332 282,322 275,312" id="243" fill="rgb(0,109,250)" fill-opacity="0.501961" />
<polygon points="267,122 259,97 262,138" id="244" fill="rgb(202,244,141)" fill-opacity="0.501961" />
<polygon points="247,177 163,100 319,251" id="245" fill="rgb(162,144,135)" fill-opacity="0.501961" />
<polygon points="142,125 140,106 132,131" id="246" fill="rgb(182,255,166)" fill-opacity="0.501961" />
<polygon points="554,226 470,287 604,195" id="247" fill="rgb(157,148,136)" fill-opacity="0.501961" />
<polygon points="247,270 239,255 239,273" id="248" fill="rgb(196,255,142)" fill-opacity="0.501961" />
<polygon points="183,163 243,203 136,125" id="249" fill="rgb(164,155,139)" fill-opacity="0.501961" />
<polygon points="278,474 289,464 276,457" id="250" fill="rgb(0,19,159)" fill-opacity="0.501961" />
<polygon points="660,197 654,195 749,152" id="251" fill="rgb(156,128,155)" fill-opacity="0.501961" />
<polygon points="687,0 678,10 676,0" id="252" fill="rgb(224,206,205)" fill-opacity="0.501961" />
<polygon points="584,491 596,474 579,476" id="253" fill="rgb(0,44,204)" fill-opacity="0.501961" />
<polygon points="0,412 29,410 107,396" id="254" fill="rgb(180,143,168)" fill-opacity="0.501961" />
<polygon points="413,211 445,286 457,284" id="255" fill="rgb(36,48,20)" fill-opacity="0.501961" />
<polygon points="254,28 299,36 293,45" id="256" fill="rgb(151,205,70)" fill-opacity="0.501961" />
<polygon points="16,495 32,503 26,493" id="257" fill="rgb(0,115,255)" fill-opacity="0.501961" />
<polygon points="108,269 82,289 103,307" id="258" fill="rgb(174,160,93)" fill-opacity="0.501961" />
<polygon points="724,302 703,269 745,297" id="259" fill="rgb(116,185,113)" fill-opacity="0.501961" />
<polygon points="43,68 86,93 102,105" id="260" fill="rgb(222,168,175)" fill-opacity="0.501961" />
<polygon points="109,173 18,128 47,47" id="261" fill="rgb(56,33,18)" fill-opacity="0.501961" />
<polygon points="195,459 202,482 200,456" id="262" fill="rgb(204,255,181)" fill-opacity="0.501961" />
<polygon points="608,415 697,472 590,420" id="263" fill="rgb(100,110,103)" fill-opacity="0.501961" />
<polygon points="264,346 159,345 286,367" id="264" fill="rgb(29,31,19)" fill-opacity="0.501961" />
<polygon points="644,352 650,333 638,339" id="265" fill="rgb(0,96,239)" fill-opacity="0.501961" />
<polygon points="507,420 465,387 544,447" id="266" fill="rgb(192,213,225)" fill-opacity="0.501961" />
<polygon points="107,503 95,486 114,485" id="267" fill="rgb(0,18,134)" fill-opacity="0.501961" />
<polygon points="390,181 394,156 392,149" id="268" fill="rgb(255,255,255)" fill-opacity="0.501961" />
<polygon points="122,350 148,342 129,322" id="269" fill="rgb(181,141,84)" fill-opacity="0.501961" />
<polygon points="0,419 192,385 -21,433" id="270" fill="rgb(31,16,8)" fill-opacity="0.501961" />
<polygon points="273,80 326,42 217,45" id="271" fill="rgb(52,39,19)" fill-opacity="0.501961" />
<polygon points="70,443 77,408 107,451" id="272" fill="rgb(152,139,67)" fill-opacity="0.501961" />
<polygon points="206,502 194,486 189,505" id="273" fill="rgb(0,9,107)" fill-opacity="0.501961" />
<polygon points="372,264 416,365 359,425" id="274" fill="rgb(8,64,181)" fill-opacity="0.501961" />
<polygon points="186,365 274,359 53,378" id="275" fill="rgb(134,115,103)" fill-opacity="0.501961" />
<polygon points="6,477 63,462 49,467" id="276" fill="rgb(248,224,234)" fill-opacity="0.501961" />
<polygon points="283,300 310,353 304,263" id="277" fill="rgb(34,57,41)" fill-opacity="0.501961" />
<polygon points="389,42 383,0 495,15" id="278" fill="rgb(79,53,26)" fill-opacity="0.501961" />
<polygon points="172,443 59,489 95,451" id="279" fill="rgb(34,37,31)" fill-opacity="0.501961" />
<polygon points="573,385 581,366 565,374" id="280" fill="rgb(0,96,227)" fill-opacity="0.501961" />
<polygon points="472,512 491,512 450,452" id="281" fill="rgb(8,30,6)" fill-opacity="0.501961" />
<polygon points="205,369 215,369 214,385" id="282" fill="rgb(0,131,255)" fill-opacity="0.501961" />
<polygon points="94,0 36,0 11,15" id="283" fill="rgb(116,96,0)" fill-opacity="0.501961" />
<polygon points="22,75 73,35 27,36" id="284" fill="rgb(124,107,35)" fill-opacity="0.501961" />
<polygon points="525,467 497,441 484,427" id="285" fill="rgb(216,234,242)" fill-opacity="0.501961" />
<polygon points="142,134 167,153 49,190" id="286" fill="rgb(44,25,18)" fill-opacity="0.501961" />
<polygon points="546,489 494,485 574,482" id="287" fill="rgb(146,189,124)" fill-opacity="0.501961" />
<polygon points="768,368 768,357 703,356" id="288" fill="rgb(123,131,137)" fill-opacity="0.501961" />
<polygon points="194,385 182,391 256,410" id="289" fill="rgb(123,168,111)" fill-opacity="0.501961" />
<polygon points="551,499 593,480 586,510" id="290" fill="rgb(46,48,41)" fill-opacity="0.501961" />
<polygon points="498,79 486,55 491,74" id="291" fill="rgb(209,255,179)" fill-opacity="0.501961" />
<polygon points="483,476 479,461 499,466" id="292" fill="rgb(0,32,166)" fill-opacity="0.501961" />
<polygon points="430,224 440,231 448,221" id="293" fill="rgb(0,107,248)" fill-opacity="0.501961" />
<polygon points="443,423 416,337 473,386" id="294" fill="rgb(125,133,73)" fill-opacity="0.501961" />
<polygon points="194,461 179,461 189,476" id="295" fill="rgb(0,56,201)" fill-opacity="0.501961" />
<polygon points="173,463 183,510 196,482" id="296" fill="rgb(157,77,26)" fill-opacity="0.501961" />
<polygon points="446,17 442,37 436,88" id="297" fill="rgb(222,190,196)" fill-opacity="0.501961" />
<polygon points="530,236 504,252 513,221" id="298" fill="rgb(181,184,127)" fill-opacity="0.501961" />
<polygon points="290,152 335,227 261,107" id="299" fill="rgb(183,173,146)" fill-opacity="0.501961" />
<polygon points="517,390 507,412 544,409" id="300" fill="rgb(8,46,37)" fill-opacity="0.501961" />
<polygon points="436,132 437,122 423,125" id="301" fill="rgb(0,0,34)" fill-opacity="0.501961" />
<polygon points="745,404 704,445 724,400" id="302" fill="rgb(158,133,88)" fill-opacity="0.501961" />
<polygon points="301,24 284,35 296,15" id="303" fill="rgb(4,116,255)" fill-opacity="0.501961" />
<polygon points="618,372 627,371 731,384" id="304" fill="rgb(165,148,165)" fill-opacity="0.501961" />
<polygon points="426,281 561,228 543,273" id="305" fill="rgb(46,56,33)" fill-opacity="0.501961" />
<polygon points="738,89 677,128 768,72" id="306" fill="rgb(191,158,193)" fill-opacity="0.501961" />
<polygon points="494,411 511,384 512,404" id="307" fill="rgb(202,190,147)" fill-opacity="0.501961" />
<polygon points="289,2 305,13 305,22" id="308" fill="rgb(225,255,135)" fill-opacity="0.501961" />
<polygon points="218,289 197,273 214,251" id="309" fill="rgb(143,184,112)" fill-opacity="0.501961" />
<polygon points="565,344 576,325 637,342" id="310" fill="rgb(122,116,103)" fill-opacity="0.501961" />
<polygon points="743,209 750,199 753,220" id="311" fill="rgb(174,255,116)" fill-opacity="0.501961" />
<polygon points="146,179 141,175 211,215" id="312" fill="rgb(173,160,158)" fill-opacity="0.501961" />
<polygon points="556,277 514,286 586,250" id="313" fill="rgb(43,49,28)" fill-opacity="0.501961" />
<polygon points="136,6 150,52 182,28" id="314" fill="rgb(112,117,41)" fill-opacity="0.501961" />
<polygon points="505,390 483,387 495,401" id="315" fill="rgb(37,136,223)" fill-opacity="0.501961" />
<polygon points="762,445 732,434 768,445" id="316" fill="rgb(242,222,255)" fill-opacity="0.501961" />
<polygon points="373,141 389,143 387,96" id="317" fill="rgb(139,115,125)" fill-opacity="0.501961" />
<polygon points="691,198 750,179 679,205" id="318" fill="rgb(166,141,162)" fill-opacity="0.501961" />
<polygon points="730,467 750,365 782,378" id="319" fill="rgb(52,48,45)" fill-opacity="0.501961" />
<polygon points="451,127 450,197 427,201" id="320" fill="rgb(39,32,10)" fill-opacity="0.501961" />
<polygon points="492,148 495,166 525,118" id="321" fill="rgb(166,194,91)" fill-opacity="0.501961" />
<polygon points="121,454 18,488 79,470" id="322" fill="rgb(166,158,161)" fill-opacity="0.501961" />
<polygon points="0,190 0,185 80,210" id="323" fill="rgb(142,113,101)" fill-opacity="0.501961" />
<polygon points="708,321 648,359 667,317" id="324" fill="rgb(134,96,94)" fill-opacity="0.501961" />
<polygon points="374,183 366,161 366,154" id="325" fill="rgb(254,248,255)" fill-opacity="0.501961" />
<polygon points="337,223 297,229 319,210" id="326" fill="rgb(200,195,163)" fill-opacity="0.501961" />
<polygon points="742,74 659,0 638,25" id="327" fill="rgb(34,28,16)" fill-opacity="0.501961" />
<polygon points="501,51 508,65 515,57" id="328" fill="rgb(0,0,13)" fill-opacity="0.501961" />
<polygon points="123,512 165,466 129,479" id="329" fill="rgb(46,65,31)" fill-opacity="0.501961" />
<polygon points="564,389 559,363 577,407" id="330" fill="rgb(149,216,99)" fill-opacity="0.501961" />
<polygon points="371,218 383,208 374,166" id="331" fill="rgb(6,0,9)" fill-opacity="0.501961" />
<polygon points="552,441 672,512 582,440" id="332" fill="rgb(41,77,64)" fill-opacity="0.501961" />
<polygon points="53,0 118,51 49,7" id="333" fill="rgb(149,153,95)" fill-opacity="0.501961" />
<polygon points="734,19 715,20 720,5" id="334" fill="rgb(0,0,55)" fill-opacity="0.501961" />
<polygon points="92,131 111,154 144,127" id="335" fill="rgb(113,111,37)" fill-opacity="0.501961" />
<polygon points="346,216 376,232 350,267" id="336" fill="rgb(25,37,24)" fill-opacity="0.501961" />
<polygon points="37,284 0,324 66,292" id="337" fill="rgb(128,106,69)" fill-opacity="0.501961" />
<polygon points="160,16 176,0 175,12" id="338" fill="rgb(0,0,31)" fill-opacity="0.501961" />
<polygon points="288,363 271,390 311,391" id="339" fill="rgb(98,144,124)" fill-opacity="0.501961" />
<polygon points="102,206 114,206 110,190" id="340" fill="rgb(0,0,72)" fill-opacity="0.501961" />
<polygon points="651,147 631,193 734,143" id="341" fill="rgb(68,44,54)" fill-opacity="0.501961" />
<polygon points="518,167 505,152 520,155" id="342" fill="rgb(0,0,80)" fill-opacity="0.501961" />
<polygon points="223,226 194,216 204,210" id="343" fill="rgb(163,228,143)" fill-opacity="0.501961" />
<polygon points="617,503 630,508 607,512" id="344" fill="rgb(0,51,209)" fill-opacity="0.501961" />
<polygon points="270,373 276,370 223,381" id="345" fill="rgb(229,223,232)" fill-opacity="0.501961" />
<polygon points="308,494 309,448 290,453" id="346" fill="rgb(89,180,102)" fill-opacity="0.501961" />
<polygon points="128,204 195,235 130,208" id="347" fill="rgb(144,127,128)" fill-opacity="0.501961" />
<polygon points="66,262 69,387 103,314" id="348" fill="rgb(65,46,35)" fill-opacity="0.501961" />
<polygon points="728,430 724,442 690,441" id="349" fill="rgb(133,236,155)" fill-opacity="0.501961" />
</svg>