<?xml version="1.0" standalone="no"?>
<svg xmlns="http://www.w3.org/2000/svg" version="1.2" baseProfile="tiny" width="501" height="371" viewBox="0 0 501 371">
<rect id="background" x="0" y="0" width="501" height="371" fill="rgb(41,12,9)" fill-opacity="1"/>
<polygon points="259,66 329,136 220,246 150,176" id="0" fill="rgb(158,39,37)" fill-opacity="0.501961"/>
<polygon points="157,186 22,201 19,172 154,158" id="1" fill="rgb(210,146,87)" fill-opacity="0.501961"/>
<polygon points="405,0 500,0 501,92 406,93" id="2" fill="rgb(126,26,25)" fill-opacity="0.501961"/>
<polygon points="10,176 64,109 127,161 73,228" id="3" fill="rgb(117,72,43)" fill-opacity="0.501961"/>
<g transform="translate(205 27) rotate(42) scale(74 161)"><ellipse cx="0" cy="0" rx="1" ry="1" id="4" fill="rgb(0,1,0)" fill-opacity="0.501961" /></g>
<g transform="translate(357 181) rotate(0) scale(49 370)"><ellipse cx="0" cy="0" rx="1" ry="1" id="5" fill="rgb(0,0,0)" fill-opacity="0.501961" /></g>
<g transform="translate(177 265) rotate(22) scale(71 107)"><ellipse cx="0" cy="0" rx="1" ry="1" id="6" fill="rgb(77,16,12)" fill-opacity="0.501961" /></g>
<g transform="translate(129 173) rotate(2) scale(42 8)"><ellipse cx="0" cy="0" rx="1" ry="1" id="7" fill="rgb(222,180,116)" fill-opacity="0.501961" /></g>
<g transform="translate(258 82) rotate(113) scale(20 12)"><ellipse cx="0" cy="0" rx="1" ry="1" id="8" fill="rgb(219,107,80)" fill-opacity="0.501961" /></g>
<g transform="translate(16 305) rotate(159) scale(46 363)"><ellipse cx="0" cy="0" rx="1" ry="1" id="9" fill="rgb(0,0,0)" fill-opacity="0.501961" /></g>
<g transform="translate(260 151) rotate(250) scale(22 44)"><ellipse cx="0" cy="0" rx="1" ry="1" id="10" fill="rgb(183,60,48)" fill-opacity="0.501961" /></g>
<g transform="translate(64 89) rotate(269) scale(75 4)"><ellipse cx="0" cy="0" rx="1" ry="1" id="11" fill="rgb(129,108,81)" fill-opacity="0.501961" /></g>
<g transform="translate(66 171) rotate(76) scale(8 30)"><ellipse cx="0" cy="0" rx="1" ry="1" id="12" fill="rgb(23,0,0)" fill-opacity="0.501961" /></g>
<g transform="translate(425 352) rotate(92) scale(114 35)"><ellipse cx="0" cy="0" rx="1" ry="1" id="13" fill="rgb(0,0,0)" fill-opacity="0.501961" /></g>
<g transform="translate(474 46) rotate(336) scale(23 15)"><ellipse cx="0" cy="0" rx="1" ry="1" id="14" fill="rgb(182,57,41)" fill-opacity="0.501961" /></g>
<polygon points="500,254 448,253 449,242 501,243" id="15" fill="rgb(179,52,31)" fill-opacity="0.501961"/>
<g transform="translate(10 52) rotate(273) scale(104 49)"><ellipse cx="0" cy="0" rx="1" ry="1" id="16" fill="rgb(2,18,19)" fill-opacity="0.501961" /></g>
<g transform="translate(290 172) rotate(157) scale(52 12)"><ellipse cx="0" cy="0" rx="1" ry="1" id="17" fill="rgb(20,0,1)" fill-opacity="0.501961" /></g>
<g transform="translate(330 315) rotate(344) scale(122 18)"><ellipse cx="0" cy="0" rx="1" ry="1" id="18" fill="rgb(67,22,10)" fill-opacity="0.501961" /></g>
<polygon points="280,0 326,0 322,113 277,112" id="19" fill="rgb(0,0,0)" fill-opacity="0.501961"/>
<g transform="translate(188 224) rotate(136) scale(49 10)"><ellipse cx="0" cy="0" rx="1" ry="1" id="20" fill="rgb(148,26,29)" fill-opacity="0.501961" /></g>
<g transform="translate(84 229) rotate(153) scale(22 40)"><ellipse cx="0" cy="0" rx="1" ry="1" id="21" fill="rgb(100,42,20)" fill-opacity="0.501961" /></g>
<polygon points="211,129 183,82 221,60 248,108" id="22" fill="rgb(0,0,0)" fill-opacity="0.501961"/>
<g transform="translate(198 267) rotate(18) scale(20 42)"><ellipse cx="0" cy="0" rx="1" ry="1" id="23" fill="rgb(9,0,0)" fill-opacity="0.501961" /></g>
<g transform="translate(149 343) rotate(277) scale(16 72)"><ellipse cx="0" cy="0" rx="1" ry="1" id="24" fill="rgb(85,50,20)" fill-opacity="0.501961" /></g>
<g transform="translate(463 197) rotate(262) scale(41 31)"><ellipse cx="0" cy="0" rx="1" ry="1" id="25" fill="rgb(2,0,0)" fill-opacity="0.501961" /></g>
<g transform="translate(193 184) rotate(54) scale(17 29)"><ellipse cx="0" cy="0" rx="1" ry="1" id="26" fill="rgb(21,6,4)" fill-opacity="0.501961" /></g>
<g transform="translate(12 35) rotate(273) scale(44 21)"><ellipse cx="0" cy="0" rx="1" ry="1" id="27" fill="rgb(52,46,41)" fill-opacity="0.501961" /></g>
<polygon points="265,98 247,99 246,88 264,87" id="28" fill="rgb(223,218,152)" fill-opacity="0.501961"/>
<g transform="translate(435 55) rotate(285) scale(105 19)"><ellipse cx="0" cy="0" rx="1" ry="1" id="29" fill="rgb(50,0,7)" fill-opacity="0.501961" /></g>
<g transform="translate(240 168) rotate(286) scale(7 27)"><ellipse cx="0" cy="0" rx="1" ry="1" id="30" fill="rgb(193,148,87)" fill-opacity="0.501961" /></g>
<g transform="translate(66 128) rotate(147) scale(15 27)"><ellipse cx="0" cy="0" rx="1" ry="1" id="31" fill="rgb(119,87,58)" fill-opacity="0.501961" /></g>
<g transform="translate(307 135) rotate(316) scale(13 26)"><ellipse cx="0" cy="0" rx="1" ry="1" id="32" fill="rgb(156,20,28)" fill-opacity="0.501961" /></g>
<g transform="translate(127 22) rotate(263) scale(94 60)"><ellipse cx="0" cy="0" rx="1" ry="1" id="33" fill="rgb(1,10,3)" fill-opacity="0.501961" /></g>
<polygon points="229,304 215,302 226,219 240,221" id="34" fill="rgb(130,10,26)" fill-opacity="0.501961"/>
<g transform="translate(278 267) rotate(181) scale(39 53)"><ellipse cx="0" cy="0" rx="1" ry="1" id="35" fill="rgb(15,0,0)" fill-opacity="0.501961" /></g>
<polygon points="128,183 131,199 82,208 79,192" id="36" fill="rgb(46,3,2)" fill-opacity="0.501961"/>
<polygon points="147,188 138,193 118,161 127,156" id="37" fill="rgb(209,157,95)" fill-opacity="0.501961"/>
<g transform="translate(223 141) rotate(171) scale(44 16)"><ellipse cx="0" cy="0" rx="1" ry="1" id="38" fill="rgb(151,19,26)" fill-opacity="0.501961" /></g>
<polygon points="28,220 20,192 43,186 51,214" id="39" fill="rgb(101,44,22)" fill-opacity="0.501961"/>
<polygon points="169,163 170,180 142,181 141,164" id="40" fill="rgb(132,99,59)" fill-opacity="0.501961"/>
<g transform="translate(253 206) rotate(75) scale(13 23)"><ellipse cx="0" cy="0" rx="1" ry="1" id="41" fill="rgb(137,19,25)" fill-opacity="0.501961" /></g>
<g transform="translate(273 114) rotate(237) scale(9 25)"><ellipse cx="0" cy="0" rx="1" ry="1" id="42" fill="rgb(17,0,0)" fill-opacity="0.501961" /></g>
<g transform="translate(231 149) rotate(289) scale(10 21)"><ellipse cx="0" cy="0" rx="1" ry="1" id="43" fill="rgb(63,0,11)" fill-opacity="0.501961" /></g>
<polygon points="42,105 45,149 0,152 -2,108" id="44" fill="rgb(1,0,0)" fill-opacity="0.501961"/>
<g transform="translate(480 286) rotate(198) scale(195 26)"><ellipse cx="0" cy="0" rx="1" ry="1" id="45" fill="rgb(11,0,1)" fill-opacity="0.501961" /></g>
<g transform="translate(366 54) rotate(84) scale(86 33)"><ellipse cx="0" cy="0" rx="1" ry="1" id="46" fill="rgb(0,0,0)" fill-opacity="0.501961" /></g>
<g transform="translate(294 362) rotate(172) scale(165 15)"><ellipse cx="0" cy="0" rx="1" ry="1" id="47" fill="rgb(6,0,1)" fill-opacity="0.501961" /></g>
<g transform="translate(273 84) rotate(213) scale(27 5)"><ellipse cx="0" cy="0" rx="1" ry="1" id="48" fill="rgb(149,11,18)" fill-opacity="0.501961" /></g>
<g transform="translate(162 259) rotate(210) scale(8 58)"><ellipse cx="0" cy="0" rx="1" ry="1" id="49" fill="rgb(118,15,23)" fill-opacity="0.501961" /></g>
<g transform="translate(243 21) rotate(340) scale(95 47)"><ellipse cx="0" cy="0" rx="1" ry="1" id="50" fill="rgb(1,0,1)" fill-opacity="0.501961" /></g>
<g transform="translate(242 135) rotate(85) scale(20 9)"><ellipse cx="0" cy="0" rx="1" ry="1" id="51" fill="rgb(189,30,30)" fill-opacity="0.501961" /></g>
<g transform="translate(468 61) rotate(275) scale(37 11)"><ellipse cx="0" cy="0" rx="1" ry="1" id="52" fill="rgb(132,48,35)" fill-opacity="0.501961" /></g>
<g transform="translate(57 358) rotate(107) scale(24 226)"><ellipse cx="0" cy="0" rx="1" ry="1" id="53" fill="rgb(5,1,1)" fill-opacity="0.501961" /></g>
<g transform="translate(37 153) rotate(87) scale(2 26)"><ellipse cx="0" cy="0" rx="1" ry="1" id="54" fill="rgb(127,99,68)" fill-opacity="0.501961" /></g>
<polygon points="265,112 251,114 250,106 264,104" id="55" fill="rgb(189,132,80)" fill-opacity="0.501961"/>
<polygon points="403,185 423,184 424,224 404,225" id="56" fill="rgb(89,11,14)" fill-opacity="0.501961"/>
<g transform="translate(256 77) rotate(323) scale(32 6)"><ellipse cx="0" cy="0" rx="1" ry="1" id="57" fill="rgb(120,16,18)" fill-opacity="0.501961" /></g>
<polygon points="83,177 52,182 47,157 79,152" id="58" fill="rgb(61,16,10)" fill-opacity="0.501961"/>
<g transform="translate(456 126) rotate(47) scale(41 28)"><ellipse cx="0" cy="0" rx="1" ry="1" id="59" fill="rgb(24,0,2)" fill-opacity="0.501961" /></g>
<g transform="translate(61 102) rotate(266) scale(25 5)"><ellipse cx="0" cy="0" rx="1" ry="1" id="60" fill="rgb(92,65,46)" fill-opacity="0.501961" /></g>
<g transform="translate(486 2) rotate(270) scale(12 9)"><ellipse cx="0" cy="0" rx="1" ry="1" id="61" fill="rgb(146,79,35)" fill-opacity="0.501961" /></g>
<g transform="translate(128 229) rotate(343) scale(24 44)"><ellipse cx="0" cy="0" rx="1" ry="1" id="62" fill="rgb(39,6,5)" fill-opacity="0.501961" /></g>
<polygon points="100,150 103,147 109,154 107,156" id="63" fill="rgb(190,169,121)" fill-opacity="0.501961"/>
<g transform="translate(96 224) rotate(162) scale(4 44)"><ellipse cx="0" cy="0" rx="1" ry="1" id="64" fill="rgb(119,62,31)" fill-opacity="0.501961" /></g>
<polygon points="43,184 36,221 32,220 39,183" id="65" fill="rgb(25,0,0)" fill-opacity="0.501961"/>
<g transform="translate(314 191) rotate(43) scale(38 27)"><ellipse cx="0" cy="0" rx="1" ry="1" id="66" fill="rgb(14,0,1)" fill-opacity="0.501961" /></g>
<polygon points="81,337 104,337 104,345 81,345" id="67" fill="rgb(118,77,36)" fill-opacity="0.501961"/>
<polygon points="24,106 33,57 58,61 49,111" id="68" fill="rgb(3,0,0)" fill-opacity="0.501961"/>
<polygon points="255,157 252,156 257,145 260,147" id="69" fill="rgb(184,184,144)" fill-opacity="0.501961"/>
<g transform="translate(75 184) rotate(263) scale(4 33)"><ellipse cx="0" cy="0" rx="1" ry="1" id="70" fill="rgb(166,105,63)" fill-opacity="0.501961" /></g>
<g transform="translate(219 114) rotate(60) scale(11 23)"><ellipse cx="0" cy="0" rx="1" ry="1" id="71" fill="rgb(3,0,0)" fill-opacity="0.501961" /></g>
<g transform="translate(365 192) rotate(127) scale(38 27)"><ellipse cx="0" cy="0" rx="1" ry="1" id="72" fill="rgb(0,0,0)" fill-opacity="0.501961" /></g>
<g transform="translate(134 325) rotate(156) scale(30 4)"><ellipse cx="0" cy="0" rx="1" ry="1" id="73" fill="rgb(11,0,0)" fill-opacity="0.501961" /></g>
<g transform="translate(183 163) rotate(321) scale(9 23)"><ellipse cx="0" cy="0" rx="1" ry="1" id="74" fill="rgb(53,31,16)" fill-opacity="0.501961" /></g>
<polygon points="100,164 86,165 85,56 99,55" id="75" fill="rgb(35,22,7)" fill-opacity="0.501961"/>
<g transform="translate(50 165) rotate(80) scale(3 25)"><ellipse cx="0" cy="0" rx="1" ry="1" id="76" fill="rgb(129,89,53)" fill-opacity="0.501961" /></g>
<polygon points="131,129 127,141 120,139 124,127" id="77" fill="rgb(84,79,45)" fill-opacity="0.501961"/>
<polygon points="150,190 151,176 189,177 188,191" id="78" fill="rgb(64,20,12)" fill-opacity="0.501961"/>
<g transform="translate(269 185) rotate(175) scale(30 10)"><ellipse cx="0" cy="0" rx="1" ry="1" id="79" fill="rgb(45,1,7)" fill-opacity="0.501961" /></g>
<g transform="translate(500 91) rotate(104) scale(28 30)"><ellipse cx="0" cy="0" rx="1" ry="1" id="80" fill="rgb(56,7,9)" fill-opacity="0.501961" /></g>
<g transform="translate(283 141) rotate(84) scale(18 25)"><ellipse cx="0" cy="0" rx="1" ry="1" id="81" fill="rgb(157,22,24)" fill-opacity="0.501961" /></g>
<polygon points="72,172 126,170 127,171 72,173" id="82" fill="rgb(218,166,102)" fill-opacity="0.501961"/>
<polygon points="82,128 86,146 50,153 46,136" id="83" fill="rgb(119,84,58)" fill-opacity="0.501961"/>
<g transform="translate(88 249) rotate(354) scale(4 42)"><ellipse cx="0" cy="0" rx="1" ry="1" id="84" fill="rgb(28,0,1)" fill-opacity="0.501961" /></g>
<polygon points="419,143 404,142 405,73 420,74" id="85" fill="rgb(89,11,18)" fill-opacity="0.501961"/>
<polygon points="478,280 477,286 452,282 453,277" id="86" fill="rgb(106,36,15)" fill-opacity="0.501961"/>
<g transform="translate(454 25) rotate(313) scale(39 6)"><ellipse cx="0" cy="0" rx="1" ry="1" id="87" fill="rgb(38,0,3)" fill-opacity="0.501961" /></g>
<g transform="translate(175 336) rotate(327) scale(44 24)"><ellipse cx="0" cy="0" rx="1" ry="1" id="88" fill="rgb(75,36,15)" fill-opacity="0.501961" /></g>
<g transform="translate(500 352) rotate(267) scale(101 16)"><ellipse cx="0" cy="0" rx="1" ry="1" id="89" fill="rgb(12,2,3)" fill-opacity="0.501961" /></g>
<g transform="translate(258 85) rotate(272) scale(2 29)"><ellipse cx="0" cy="0" rx="1" ry="1" id="90" fill="rgb(55,4,11)" fill-opacity="0.501961" /></g>
<polygon points="492,232 501,233 500,241 491,240" id="91" fill="rgb(149,37,28)" fill-opacity="0.501961"/>
<polygon points="264,165 265,171 249,176 247,169" id="92" fill="rgb(210,139,82)" fill-opacity="0.501961"/>
<g transform="translate(7 164) rotate(173) scale(7 66)"><ellipse cx="0" cy="0" rx="1" ry="1" id="93" fill="rgb(2,0,0)" fill-opacity="0.501961" /></g>
<g transform="translate(59 281) rotate(121) scale(11 63)"><ellipse cx="0" cy="0" rx="1" ry="1" id="94" fill="rgb(22,3,3)" fill-opacity="0.501961" /></g>
<g transform="translate(212 227) rotate(351) scale(51 8)"><ellipse cx="0" cy="0" rx="1" ry="1" id="95" fill="rgb(81,5,15)" fill-opacity="0.501961" /></g>
<polygon points="144,166 155,178 138,194 127,182" id="96" fill="rgb(180,126,73)" fill-opacity="0.501961"/>
<g transform="translate(94 159) rotate(282) scale(2 23)"><ellipse cx="0" cy="0" rx="1" ry="1" id="97" fill="rgb(30,0,0)" fill-opacity="0.501961" /></g>
<polygon points="207,134 206,158 189,157 190,133" id="98" fill="rgb(167,36,38)" fill-opacity="0.501961"/>
<polygon points="68,181 70,182 66,226 64,226" id="99" fill="rgb(152,107,70)" fill-opacity="0.501961"/>
</svg>